<svg width="419" height="174" viewBox="0 0 419 174" fill="none" xmlns="http://www.w3.org/2000/svg">
<path d="M154.516 129.318L152.448 135.529H144.684L156.33 102.92H164.094L175.74 135.529H167.976L165.907 129.318H154.522H154.516ZM163.839 122.846L160.217 111.977L156.596 122.846H163.845H163.839Z" fill="black"/>
<path d="M178.59 102.915H186.093V128.281H200.845V135.529H178.584V102.92L178.59 102.915Z" fill="black"/>
<path d="M203.174 115.342H218.963V121.554H203.174V115.342Z" fill="black"/>
<path d="M244.069 118.188C245.037 118.634 245.9 119.225 246.659 119.949C247.314 120.569 247.911 121.363 248.444 122.331C248.977 123.298 249.249 124.503 249.249 125.952C249.249 127.261 248.989 128.495 248.473 129.654C247.957 130.813 247.221 131.821 246.271 132.685C245.321 133.548 244.203 134.237 242.905 134.753C241.613 135.269 240.187 135.529 238.635 135.529H223.883V102.92H237.858C239.341 102.92 240.703 103.164 241.949 103.645C243.189 104.126 244.255 104.786 245.13 105.609C246.01 106.437 246.7 107.393 247.198 108.483C247.696 109.572 247.951 110.737 247.951 111.977C247.951 113.083 247.743 114.028 247.331 114.821C246.92 115.615 246.468 116.253 245.987 116.739C245.402 117.324 244.765 117.811 244.069 118.188ZM231.386 115.859H237.082C238.119 115.859 238.982 115.523 239.672 114.85C240.361 114.178 240.709 113.39 240.709 112.492C240.709 111.594 240.361 110.812 239.672 110.134C238.982 109.462 238.119 109.126 237.082 109.126H231.386V115.853V115.859ZM237.858 129.318C239.029 129.318 240.013 128.93 240.807 128.154C241.601 127.377 242.001 126.473 242.001 125.436C242.001 124.399 241.601 123.495 240.807 122.719C240.013 121.942 239.029 121.554 237.858 121.554H231.386V129.318H237.858Z" fill="black"/>
<path d="M260.895 102.915V122.325C260.895 124.289 261.428 125.819 262.5 126.908C263.572 127.997 265.02 128.536 266.845 128.536C268.67 128.536 270.125 127.991 271.191 126.908C272.257 125.824 272.796 124.295 272.796 122.325V102.915H280.299V122.325C280.299 124.324 279.969 126.155 279.314 127.812C278.659 129.469 277.744 130.883 276.568 132.059C275.397 133.235 273.978 134.145 272.321 134.805C270.663 135.46 268.833 135.79 266.834 135.79C264.835 135.79 263.004 135.46 261.347 134.805C259.689 134.15 258.276 133.235 257.1 132.059C255.923 130.888 255.014 129.469 254.353 127.812C253.698 126.155 253.368 124.329 253.368 122.325V102.915H260.871H260.895Z" fill="black"/>
<path d="M304.12 135.529L293.505 121.038V135.529H286.001V102.92H293.505V116.896L303.337 102.92H311.878L300.388 118.964L312.654 135.529H304.114H304.12Z" fill="black"/>
<path d="M342.679 102.915V135.524H335.175V122.585H322.753V135.524H315.25V102.915H322.753V115.337H335.175V102.915H342.679Z" fill="black"/>
<path d="M355.361 129.318L353.292 135.529H345.528L357.174 102.92H364.938L376.585 135.529H368.82L366.752 129.318H355.367H355.361ZM364.678 122.846L361.056 111.977L357.435 122.846H364.684H364.678Z" fill="black"/>
<path d="M392.635 102.915C394.327 102.915 395.868 103.193 397.27 103.743C398.666 104.294 399.866 105.035 400.868 105.968C401.87 106.901 402.647 107.996 403.197 109.253C403.748 110.511 404.026 111.849 404.026 113.263C404.026 115.094 403.707 116.629 403.07 117.869C402.432 119.109 401.726 120.123 400.949 120.899C400.173 121.676 399.13 122.412 397.82 123.101L405.069 135.524H396.789L390.838 124.654H386.956V135.524H379.453V102.915H392.652H392.635ZM392.635 117.411C393.944 117.411 394.964 117.069 395.688 116.374C396.412 115.685 396.777 114.821 396.777 113.784C396.777 112.747 396.412 111.884 395.688 111.194C394.964 110.505 393.944 110.157 392.635 110.157H386.939V117.406H392.635V117.411Z" fill="black"/>
<path d="M416.443 135.529H408.939V102.92H416.443V135.529Z" fill="black"/>
<path d="M149.116 147.999V158.984H147.175V147.999H149.116Z" fill="black"/>
<path d="M168.19 148.583L167.692 150.298C166.226 149.835 164.981 149.603 163.943 149.603C163.306 149.603 162.808 149.725 162.443 149.968C162.078 150.212 161.892 150.571 161.892 151.04C161.892 151.48 162.101 151.805 162.512 152.002C162.929 152.199 163.648 152.402 164.668 152.605C165.995 152.877 166.962 153.236 167.582 153.688C168.202 154.14 168.509 154.847 168.509 155.803C168.509 156.921 168.109 157.773 167.316 158.358C166.516 158.937 165.456 159.233 164.135 159.233C162.553 159.233 161.017 158.926 159.528 158.312L159.98 156.504C161.475 157.107 162.889 157.408 164.21 157.408C165.769 157.408 166.551 156.938 166.551 156C166.551 155.635 166.394 155.328 166.081 155.084C165.769 154.841 165.461 154.679 165.16 154.598C164.859 154.517 164.372 154.412 163.706 154.285C163.52 154.25 163.387 154.227 163.3 154.204C162.06 153.943 161.174 153.59 160.641 153.132C160.108 152.674 159.841 152.002 159.841 151.121C159.841 150.119 160.218 149.325 160.971 148.728C161.724 148.137 162.732 147.842 163.99 147.842C165.485 147.842 166.881 148.091 168.173 148.583H168.19Z" fill="black"/>
<path d="M186.72 158.984H178.996V147.999H180.937V157.24H186.72V158.984Z" fill="black"/>
<path d="M199.194 156.742L198.226 158.984H196.03L201.036 147.935H202.844L207.839 158.984H205.672L204.669 156.742H199.194ZM201.94 150.455L199.953 154.992H203.928L201.94 150.455Z" fill="black"/>
<path d="M228.031 152.327L224.879 158.984H223.164L220.012 152.327L219.577 158.984H217.688L218.32 147.999H220.145L224.021 156.661L227.88 147.999H229.723L230.354 158.984H228.465L228.031 152.327Z" fill="black"/>
<path d="M243.119 147.999V158.984H241.178V147.999H243.119Z" fill="black"/>
<path d="M263.457 148.259L263.103 150.084C261.765 149.782 260.699 149.632 259.905 149.632C258.538 149.632 257.477 149.985 256.73 150.692C255.982 151.399 255.606 152.32 255.606 153.462C255.606 154.603 255.982 155.6 256.73 156.324C257.477 157.048 258.474 157.407 259.708 157.407C260.612 157.407 261.759 157.245 263.15 156.921L263.503 158.618C262.113 159.03 260.815 159.233 259.609 159.233C257.79 159.233 256.324 158.705 255.218 157.651C254.111 156.596 253.555 155.206 253.555 153.485C253.555 151.764 254.111 150.391 255.229 149.342C256.342 148.293 257.819 147.766 259.65 147.766C260.942 147.766 262.211 147.934 263.463 148.264L263.457 148.259Z" fill="black"/>
<path d="M288.127 156.742L287.16 158.984H284.964L289.97 147.935H291.778L296.772 158.984H294.605L293.603 156.742H288.127ZM290.874 150.455L288.886 154.992H292.861L290.874 150.455Z" fill="black"/>
<path d="M315.458 148.259L315.104 150.084C313.766 149.782 312.7 149.632 311.906 149.632C310.539 149.632 309.478 149.985 308.731 150.692C307.983 151.399 307.607 152.32 307.607 153.462C307.607 154.603 307.983 155.6 308.731 156.324C309.478 157.048 310.475 157.407 311.709 157.407C312.613 157.407 313.76 157.245 315.151 156.921L315.504 158.618C314.114 159.03 312.816 159.233 311.61 159.233C309.791 159.233 308.325 158.705 307.219 157.651C306.112 156.596 305.556 155.206 305.556 153.485C305.556 151.764 306.112 150.391 307.23 149.342C308.343 148.293 309.82 147.766 311.651 147.766C312.943 147.766 314.212 147.934 315.464 148.264L315.458 148.259Z" fill="black"/>
<path d="M328.222 156.742L327.255 158.984H325.059L330.065 147.935H331.872L336.867 158.984H334.7L333.698 156.742H328.222ZM330.969 150.455L328.981 154.992H332.956L330.969 150.455Z" fill="black"/>
<path d="M350.744 147.853C352.465 147.853 353.873 148.363 354.951 149.388C356.034 150.414 356.573 151.764 356.573 153.444C356.573 155.125 356.046 156.504 354.997 157.547C353.948 158.589 352.627 159.111 351.034 159.111C349.342 159.111 347.957 159.065 346.879 158.983V147.998C348.496 147.899 349.782 147.853 350.738 147.853H350.744ZM351.034 157.338C352.025 157.338 352.859 156.979 353.531 156.254C354.203 155.53 354.539 154.597 354.539 153.444C354.539 152.291 354.186 151.382 353.479 150.692C352.772 149.997 351.862 149.649 350.738 149.649C350.026 149.649 349.388 149.672 348.815 149.713V157.274C349.782 157.315 350.524 157.338 351.028 157.338H351.034Z" fill="black"/>
<path d="M368.868 152.605H374.216V154.384H368.868V157.194H374.894V158.984H366.927V147.999H374.894V149.789H368.868V152.599V152.605Z" fill="black"/>
<path d="M395.589 152.327L392.437 158.984H390.722L387.57 152.327L387.136 158.984H385.247L385.879 147.999H387.704L391.58 156.661L395.439 147.999H397.281L397.913 158.984H396.024L395.589 152.327Z" fill="black"/>
<path d="M411.581 155.288L407.01 148.004H409.206L412.531 153.254L415.892 148.004H418.071L413.534 155.288V158.984H411.581V155.288Z" fill="black"/>
<path d="M104.212 70.5311L101.958 70.056C95.3414 68.6654 89.0896 66.284 83.3477 63.0915C76.7135 59.3949 69.5694 53.1199 65.7627 48.954C63.4161 46.3814 59.8585 41.5028 57.6568 37.6208C57.3787 37.1283 57.1006 36.63 56.8398 36.1201C56.5733 36.63 56.2952 37.1283 56.0055 37.6266C53.8037 41.5086 48.0444 48.7975 47.9112 48.9482C39.0984 58.8966 27.3596 66.1971 14.0506 69.5055C13.1178 69.7373 11.9705 69.9575 10.7364 70.1603C4.55414 71.1858 0 76.4932 0 82.7508V85.1032C0 85.1032 9.49648 84.4311 14.0448 83.4982C22.3999 81.789 30.2856 78.7819 37.476 74.6912C44.342 70.8092 50.5822 65.9306 55.9997 60.2698C56.2778 59.9801 56.8572 59.2616 56.8572 59.2616C56.8572 59.2616 57.3845 59.9917 57.651 60.2814C62.912 65.7626 71.0643 71.8174 76.1746 74.697C82.1251 78.046 92.6646 82.3162 101.871 83.9212C101.918 83.927 101.947 83.9675 101.947 84.0139V85.4972H69.7316C69.5694 85.2249 69.4245 85.0337 69.2855 84.883C66.7303 80.6707 62.1182 77.849 56.834 77.849C48.7861 77.849 42.2619 84.3731 42.2619 92.4211C42.2619 100.469 48.7861 106.993 56.834 106.993C62.1993 106.993 66.8751 104.085 69.4072 99.7622C69.5114 99.6868 69.6215 99.5768 69.7374 99.3856H101.952V101.825C55.0205 109.096 48.5891 153.879 14.0448 157.222V116.739C17.7067 117.648 22.4462 119.775 26.757 121.953C33.455 125.343 41.6362 123.228 45.9122 117.057C43.1948 115.03 40.3557 113.181 37.3891 111.501C30.2219 107.457 18.5816 101.06 0 101.159V173.793C19.1436 172.733 30.303 167.64 37.3949 163.439C48.2762 156.996 65.5309 137.58 65.6294 137.47C83.9734 116.803 99.4436 116.878 101.958 116.745V158.19C94.6229 157.042 90.1905 154.232 84.605 151.19C79.3382 148.322 72.0782 150.628 68.6655 155.559L68.0919 156.388C70.9426 158.549 73.6079 160.733 77.0206 162.767C84.7498 167.391 98.5919 173.445 115.858 173.81V84.8656C115.858 77.9301 111.003 71.9448 104.218 70.5137L104.212 70.5311Z" fill="black"/>
<path d="M55.7559 8.30297L60.6924 9.27058L57.2681 12.9614L57.8707 17.9559L53.305 15.8411L48.745 17.9559L49.3418 12.9614L45.9233 9.27058L50.8541 8.30297L53.305 3.90527L55.7559 8.30297Z" fill="black"/>
<path d="M64.7781 26.9656C53.6303 33.0725 42.3145 25.1057 42.3145 14.5489C42.3145 14.0796 42.3376 13.5929 42.384 13.1004L42.5868 10.9624L42.9808 14.6358C43.2415 17.0867 44.522 19.3464 46.5499 20.7428C58.2945 28.8487 71.1631 15.98 63.0572 4.23546C61.6551 2.20754 59.4012 0.932845 56.9503 0.666318C55.1483 0.475114 53.2768 0.272321 53.2768 0.272321L55.4148 0.0695288C55.9073 0.0231763 56.394 0 56.8634 0C67.4202 0 75.3928 11.31 69.2916 22.452C68.2545 24.3467 66.6785 25.9285 64.7781 26.9656Z" fill="black"/>
</svg>
