<svg width="374" height="115" viewBox="0 0 374 115" fill="none" xmlns="http://www.w3.org/2000/svg">
<path d="M3.48126 63.015H16.3224C17.118 63.015 17.8868 62.732 18.5008 62.2248C19.7129 61.2263 20.9569 60.2599 22.217 59.3362C26.8142 55.9564 31.7531 53.0358 36.991 50.6491C45.219 46.8902 54.2158 45.1389 63.2553 45.1389H63.2766C66.1759 45.1389 68.9951 45.4699 71.7021 46.0893C71.7395 46.0946 71.7715 46.1053 71.8089 46.116C72.2254 46.2121 72.6579 46.0199 72.8501 45.6408C74.9965 41.396 76.1979 36.5906 76.1979 31.5128C76.2032 14.1066 62.086 0 44.6904 0H3.48126C1.55909 0 0 1.55909 0 3.48126V59.5338C0 61.4559 1.55909 63.015 3.48126 63.015ZM24.294 23.5038C30.7493 21.7739 35.7897 16.7335 37.5196 10.2782L38.47 6.77564L39.4204 10.2782C41.1504 16.7335 46.1907 21.7739 52.646 23.5038L56.1486 24.4542L52.646 25.4046C46.1907 27.1346 41.1504 32.1749 39.4204 38.6302L38.47 42.1328L37.5196 38.6302C35.7897 32.1749 30.7493 27.1346 24.294 25.4046L20.7914 24.4542L24.294 23.5038Z" fill="black"/>
<path d="M68.7332 51.8663C66.4533 51.3484 64.0826 51.0654 61.6426 51.0654H61.6212C54.0126 51.0654 46.4361 52.5338 39.5163 55.7053C35.1167 57.7129 30.9466 60.1637 27.0809 63.0149C21.1382 67.3718 15.895 72.6471 11.5381 78.6432C10.4702 80.1168 11.5381 82.1778 13.3588 82.1404L40.8672 81.5531L51.0653 67.6761C52.8006 65.3162 55.5557 63.9226 58.487 63.9226H68.6585C69.091 63.9226 69.3846 64.3711 69.2084 64.7662L54.6373 97.4644L2.56265 107.812C1.17976 108.09 0.170618 109.27 0.0905281 110.679C0.0905281 110.743 0.0851887 110.807 0.0798494 110.866C-0.0109196 112.617 1.39333 114.086 3.14998 114.086H61.6426C70.3404 114.086 78.2159 110.556 83.929 104.859C89.6261 99.1623 93.1554 91.2814 93.1554 82.5836C93.1554 67.6174 82.717 55.0913 68.7332 51.8717V51.8663Z" fill="black"/>
<path d="M181.137 56.1645C179.915 54.7389 178.436 53.5269 176.743 52.5551C175.884 52.0639 174.965 51.6207 173.999 51.2416C174.736 50.4781 175.371 49.6291 175.9 48.6894C176.935 46.8473 177.464 44.5621 177.464 41.8924C177.464 39.0893 176.957 36.5638 175.958 34.3906C174.933 32.1695 173.326 30.2793 171.169 28.7843C169.076 27.3374 166.385 26.2321 163.16 25.5113C160.02 24.8065 156.235 24.4541 151.915 24.4541H129.437V87.5385H158.867C162.818 87.5385 166.422 87.058 169.572 86.1076C172.76 85.1518 175.531 83.7796 177.806 82.0337C180.123 80.261 181.922 78.0932 183.161 75.5944C184.4 73.0956 185.025 70.2817 185.025 67.233C185.025 64.9691 184.683 62.8921 184.01 61.0714C183.337 59.2453 182.371 57.5954 181.137 56.1645ZM154.222 61.4238L157.821 60.1423C158.435 59.9234 159.081 59.8113 159.732 59.8113H159.748C160.875 59.8113 162.012 60.0195 163.122 60.4306C164.238 60.8418 165.258 61.4344 166.161 62.198C167.052 62.9508 167.784 63.8638 168.35 64.9104C168.889 65.9142 169.151 66.9874 169.151 68.1887C169.151 70.2657 168.371 71.9369 166.775 73.2985C165.119 74.7027 162.829 75.4129 159.951 75.4129H144.349C144.349 69.1284 148.3 63.5275 154.222 61.4184V61.4238ZM161.425 42.9122C161.254 43.2433 160.843 43.7932 159.849 44.5087C158.936 45.1708 157.644 45.8863 156 46.6338C154.286 47.4133 152.049 48.353 149.358 49.4316L144.349 51.4338V41.2517C144.349 38.6194 146.474 36.4783 149.107 36.457L151.456 36.4409C155.226 36.3929 158.002 36.8254 159.716 37.701C161.152 38.4379 161.793 39.5431 161.793 41.2837C161.793 41.8978 161.67 42.4317 161.425 42.9176V42.9122Z" fill="black"/>
<path d="M206.483 24.4541H191.565V87.5385H206.483V24.4541Z" fill="black"/>
<path d="M230.532 24.4541H215.614V87.5385H259.898V74.7988H230.532V24.4541Z" fill="black"/>
<path d="M283.594 24.4541L263.166 87.5385H278.789L283.215 73.779H299.495C302.971 73.779 306.046 76.0215 307.114 79.3319L309.757 87.5439H325.38L304.952 24.4594H283.6L283.594 24.4541ZM301.246 61.3116H292.639C289.996 61.3116 288.122 58.7381 288.939 56.2232L294.268 39.7567L301.246 61.3116Z" fill="black"/>
<path d="M344.479 74.7988V24.4541H329.561V87.5385H373.84V74.7988H344.479Z" fill="black"/>
<path d="M135.673 100.642V111.075H133.996V100.642H129.431V99.0933H140.217V100.642H135.668H135.673Z" fill="black"/>
<path d="M161.723 111.08L158.76 106.958C158.573 106.969 158.274 106.974 157.863 106.974H155.818V111.08H154.142V99.0931C155.53 99.0237 156.913 98.9863 158.301 98.9863C159.689 98.9863 160.896 99.328 161.745 100.006C162.594 100.69 163.021 101.656 163.021 102.916C163.021 103.776 162.791 104.518 162.332 105.148C161.873 105.778 161.238 106.243 160.426 106.547L163.742 111.075H161.713L161.723 111.08ZM155.818 105.474H158.477C159.321 105.474 160.015 105.244 160.559 104.78C161.099 104.315 161.371 103.696 161.371 102.921C161.371 102.147 161.099 101.523 160.559 101.117C160.02 100.711 159.283 100.508 158.354 100.508C157.58 100.508 156.731 100.524 155.818 100.561V105.479V105.474Z" fill="black"/>
<path d="M180.161 108.378L178.98 111.075H177.096L182.542 99.0186H184.128L189.574 111.075H187.689L186.509 108.378H180.166H180.161ZM183.332 101.192L180.828 106.883H185.836L183.332 101.192Z" fill="black"/>
<path d="M208.411 111.08H206.788L201.48 99.0933H203.419L207.578 108.822L211.791 99.0933H213.697L208.411 111.08Z" fill="black"/>
<path d="M229.843 104.31H235.925V105.858H229.843V109.526H236.667V111.075H228.172V99.0879H236.667V100.636H229.843V104.304V104.31Z" fill="black"/>
<path d="M259.898 111.08H251.74V99.0933H253.416V109.564H259.904V111.08H259.898Z" fill="black"/>
</svg>
