<svg width="640" height="185" viewBox="0 0 640 185" fill="none" xmlns="http://www.w3.org/2000/svg">
<g clip-path="url(#clip0_296_1291)">
<path d="M84.2429 82.2478C84.1785 84.7577 83.4063 87.2033 81.8617 89.5201C81.7973 89.5845 81.733 89.7132 81.6686 89.7775C75.233 99.0449 60.624 97.1142 46.4655 87.0745C32.3714 77.3567 24.7129 64.421 31.2773 54.9605C38.5496 44.4704 52.6438 48.3318 66.223 57.7279C77.4211 65.515 84.436 74.2032 84.2429 82.2478Z" fill="#FFCF0B"/>
<path d="M76.7776 104.901L51.2923 182.516C21.9456 176.016 0 149.822 0 118.545V65.5795C0 29.3467 29.3467 0 65.5151 0H111.208L91.0004 61.4607C88.5548 55.2181 84.5647 48.3962 78.5152 40.9952C62.0399 20.9803 33.3368 32.5001 22.5248 48.1388C12.2921 62.9409 10.6832 100.783 37.713 105.095C56.5052 108.119 68.8617 107.09 76.7776 104.901Z" fill="#FFCF0B"/>
<path d="M103.357 99.8819C109.793 90.6145 124.402 92.5452 138.56 102.585C152.654 112.303 160.313 125.238 153.748 134.699C146.476 145.189 132.382 141.328 118.803 131.932C104 121.699 96.4064 109.857 103.357 99.8819Z" fill="#FFCF0B"/>
<path d="M184.06 65.5795V118.545C184.06 154.714 154.713 184.06 118.481 184.06H72.7874L92.4805 124.208C94.733 131.416 98.9805 139.718 106.382 148.728C122.857 168.743 151.624 157.223 162.436 141.585C172.669 126.783 174.278 88.9409 147.248 84.629C125.817 81.2181 112.817 83.0201 105.03 85.8518L132.703 1.60889C162.114 8.04456 184.06 34.2377 184.06 65.5795Z" fill="#FFCF0B"/>
<path d="M147.312 84.6291C125.882 81.2182 112.882 83.0202 105.094 85.8519L132.768 1.60892C128.198 0.514854 123.436 0 118.545 0H111.273L91.0646 61.4607C88.619 55.2181 84.6289 48.3962 78.5794 40.9952C62.0397 20.9803 33.3366 32.5001 22.5247 48.1388C12.292 62.9409 10.6831 100.783 37.7129 105.095C56.505 108.055 68.8615 107.09 76.8418 104.901L51.2921 182.516C55.8615 183.545 60.6239 184.06 65.515 184.06H72.7873L92.4804 124.208C94.7329 131.416 98.9805 139.718 106.381 148.728C122.857 168.743 151.624 157.223 162.436 141.585C172.733 126.783 174.342 88.8766 147.312 84.6291ZM81.6685 89.7776C75.2328 99.045 60.6239 97.1143 46.4654 87.0746C32.3713 77.3568 24.7128 64.4211 31.2772 54.9606C38.5495 44.4705 52.6436 48.3319 66.2229 57.728C77.421 65.4508 84.5002 74.1389 84.2428 82.2479C84.1784 84.7578 83.4061 87.2034 81.8616 89.5202C81.7972 89.5846 81.7329 89.7133 81.6685 89.7776ZM153.748 134.699C146.476 145.189 132.382 141.327 118.802 131.931C104 121.699 96.4062 109.857 103.357 99.8816C109.792 90.6143 124.401 92.545 138.56 102.585C152.654 112.367 160.248 125.303 153.748 134.699Z" fill="#007AFF"/>
<path d="M244.169 141.327V44.4062H279.501C294.818 44.4062 307.432 49.0399 317.278 58.3717C327.125 67.7035 332.08 79.2232 332.08 92.8669C332.08 106.51 327.125 118.03 317.278 127.362C307.367 136.694 294.818 141.327 279.501 141.327H244.169ZM264.956 121.956H279.501C289.09 121.956 296.684 119.317 302.283 113.976C307.882 108.699 310.649 101.619 310.649 92.8669C310.649 84.1143 307.882 77.0351 302.283 71.7579C296.684 66.4806 289.09 63.7776 279.501 63.7776H264.956V121.956Z" fill="black"/>
<path d="M351.452 132.575C344.115 125.303 340.447 116.486 340.447 106.06C340.447 95.6344 344.115 86.8175 351.452 79.5452C358.788 72.2729 367.798 68.6689 378.546 68.6689C391.353 68.6689 401.135 73.3026 407.893 82.5056C410.917 86.4958 413.17 91.0651 414.521 96.3423H394.442C393.605 94.2829 392.511 92.4809 391.096 90.8077C387.556 87.1393 383.373 85.273 378.482 85.273C373.59 85.273 369.343 87.2037 365.803 91.0651C362.264 94.9265 360.462 99.9463 360.462 105.996C360.462 112.045 362.264 117.065 365.803 120.927C369.343 124.788 373.59 126.719 378.482 126.719C383.373 126.719 387.556 124.852 391.096 121.184C392.511 119.511 393.605 117.644 394.442 115.649H414.521C413.234 120.991 411.11 125.625 408.15 129.486C401.393 138.689 391.546 143.323 378.482 143.323C367.798 143.451 358.788 139.783 351.452 132.575Z" fill="black"/>
<path d="M431.512 133.09C425.269 126.204 422.18 117.194 422.18 105.996C422.18 94.7977 425.269 85.7877 431.512 78.9016C437.754 72.0154 445.477 68.6045 454.68 68.6045C460.858 68.6045 466.457 70.4708 471.413 74.1392C473.537 75.8768 475.339 77.7431 476.819 79.6738H477.527V70.6639H496.898V141.328H477.527V132.318H476.883C475.403 134.248 473.601 136.115 471.477 137.852C466.522 141.521 460.923 143.387 454.744 143.387C445.477 143.451 437.754 139.976 431.512 133.09ZM447.086 90.8076C443.868 94.4759 442.259 99.5601 442.259 106.06C442.259 112.496 443.868 117.58 447.086 121.313C450.304 124.981 454.487 126.847 459.571 126.847C464.913 126.847 469.289 125.045 472.571 121.377C475.918 117.709 477.527 112.624 477.527 106.06C477.527 99.4957 475.853 94.4115 472.571 90.7432C469.225 87.0749 464.913 85.2729 459.571 85.2729C454.487 85.2729 450.304 87.1392 447.086 90.8076Z" fill="black"/>
<path d="M512.151 141.328V70.7284H531.586V81.0898H532.294C533.131 78.9017 534.354 76.9066 536.027 75.2977C539.824 71.3076 544.586 69.3125 550.314 69.3125H558.616V88.0403H548.255C542.978 88.0403 538.923 89.4561 536.027 92.2878C533.131 95.1195 531.651 98.9809 531.651 104.001V141.392H512.151V141.328Z" fill="black"/>
<path d="M574.126 133.09C567.884 126.204 564.795 117.194 564.795 105.996C564.795 94.7977 567.884 85.7876 574.126 78.9014C580.369 72.0153 588.092 68.6045 597.295 68.6045C603.473 68.6045 609.072 70.4707 614.028 74.1391C616.151 75.8767 617.953 77.743 619.434 79.6737H620.141V44.4062H639.513V141.327H620.141V132.318H619.434C617.953 134.248 616.151 136.115 614.028 137.852C609.072 141.521 603.473 143.387 597.295 143.387C588.092 143.451 580.369 139.976 574.126 133.09ZM589.701 90.8075C586.483 94.4759 584.874 99.56 584.874 106.06C584.874 112.496 586.483 117.58 589.701 121.313C592.919 124.981 597.102 126.847 602.186 126.847C607.528 126.847 611.904 125.045 615.186 121.377C618.533 117.709 620.141 112.624 620.141 106.06C620.141 99.4956 618.468 94.4115 615.186 90.7432C611.839 87.0749 607.528 85.2728 602.186 85.2728C597.102 85.2728 592.983 87.1392 589.701 90.8075Z" fill="black"/>
</g>
<defs>
<clipPath id="clip0_296_1291">
<rect width="640" height="185" fill="white"/>
</clipPath>
</defs>
</svg>
