<svg width="268" height="268" viewBox="0 0 268 268" fill="none" xmlns="http://www.w3.org/2000/svg">
<path d="M143.922 248.301C143.607 247.902 143.25 247.546 142.894 247.21C140.67 244.86 137.545 243.392 134.084 243.392C127.371 243.392 121.938 248.825 121.938 255.538C121.938 262.25 127.371 267.683 134.084 267.683C140.796 267.683 146.229 262.25 146.229 255.538C146.229 255.538 146.229 255.517 146.229 255.496C146.439 252.958 145.768 250.545 143.943 248.301H143.922Z" fill="black"/>
<path d="M150.236 113.632C145.348 109.94 139.747 108.409 133.685 108.346C130.434 108.283 127.308 108.891 124.308 109.982C121.057 111.178 118.225 112.856 115.876 115.037C113.421 117.219 111.471 119.925 110.065 123.218C109.058 125.568 108.576 128.043 108.282 130.581C107.8 134.693 108.135 138.699 109.499 142.559C111.575 148.495 115.477 153.005 120.889 156.257C125.798 159.194 131.168 160.41 136.79 159.697C142.642 158.963 147.488 156.676 151.327 153.026C153.739 150.824 155.795 148.097 157.431 144.845C160.053 139.664 160.598 134.147 159.424 128.421C158.186 122.316 155.228 117.345 150.257 113.59L150.236 113.632Z" fill="black"/>
<path d="M64.1048 147.531C61.2939 148.097 58.8815 149.293 56.9097 151.118C55.6721 152.188 54.5813 153.467 53.6583 154.978C52.3577 157.138 51.7284 159.53 51.3299 162.005C50.1552 169.095 54.0778 176.248 60.7275 178.996C63.8321 180.276 67.0206 180.821 70.3978 180.402C73.6912 180.003 76.586 178.849 79.0403 176.71C79.3759 176.437 79.7115 176.122 80.0472 175.808C83.6342 172.326 85.1236 168.004 85.2704 161.523C85.3963 159.341 84.2216 156.027 81.7253 153.258C76.9846 147.993 71.0062 146.147 64.1048 147.531Z" fill="black"/>
<path d="M54.2678 95.738C51.8555 97.7937 50.0934 100.542 49.3173 103.982C47.9747 109.96 49.4012 115.393 53.4287 120.008C56.6592 123.7 60.7916 125.378 66.6861 125.127C69.1614 125.127 72.2869 124.057 75.0978 122.043C75.8949 121.477 76.6291 120.889 77.2794 120.239C82.209 115.834 83.9291 109.771 81.7894 103.164C79.3981 95.759 72.0142 89.5498 62.8893 91.4587C59.554 92.1509 56.5753 93.5983 54.2468 95.717L54.2678 95.738Z" fill="black"/>
<path d="M218.242 164.835C219.606 161.815 220.005 158.626 219.522 155.333C218.599 148.935 215.243 144.404 209.118 142.201C204.377 140.502 199.615 140.775 195.042 142.893C193.574 143.565 192.294 144.425 191.161 145.432C189.336 146.963 187.91 148.872 186.924 151.221C185.854 153.78 185.623 156.465 185.875 159.192C186.211 162.989 187.386 166.492 190.071 169.345C193.427 172.89 197.664 174.38 203.223 174.526C204.146 174.38 205.824 174.233 207.418 173.771C209.936 173.058 212.138 171.925 213.984 170.352C215.767 168.947 217.194 167.122 218.242 164.814V164.835Z" fill="black"/>
<path d="M122.273 212.599C125.315 209.306 126.301 205.278 126.511 200.978C126.637 195.922 124.476 191.811 121.476 189.273C117.113 185.56 112.016 184.112 106.331 185.098C103.122 185.644 100.374 186.902 98.171 188.916C96.7866 190.091 95.5909 191.538 94.6469 193.321C93.0317 196.342 92.2975 199.593 92.4653 203.013C92.6751 207.418 94.3952 211.089 97.8354 213.879C102.157 217.361 107.086 218.619 112.582 217.822C115.875 217.34 118.665 216.039 121.036 213.837C121.476 213.459 121.896 213.061 122.294 212.62L122.273 212.599Z" fill="black"/>
<path d="M175.366 185.017C168.695 180.339 159.13 181.556 153.466 186.926C153.466 186.926 153.445 186.947 153.424 186.968C153.298 187.073 153.173 187.178 153.068 187.283C148.683 191.415 147.425 196.617 148.537 202.428C150.068 210.462 157.326 216 164.836 215.811C169.262 215.895 173.31 214.07 176.289 211.301C178.219 209.602 179.75 207.525 180.673 205.26C181.911 202.281 182.267 199.239 181.785 196.051C181.093 191.52 179.163 187.702 175.345 185.038L175.366 185.017Z" fill="black"/>
<path d="M50.8068 208.635C46.947 207.691 43.381 208.341 40.5491 210.88C40.1086 211.236 39.6681 211.635 39.2695 212.075C36.3327 215.285 35.242 219.207 36.5215 223.508C37.906 228.206 42.8356 231.605 48.1008 231.752C49.1496 231.542 50.2404 231.437 51.2683 231.122C53.0933 230.577 54.5616 229.717 55.7363 228.605C57.7921 226.864 59.0297 224.41 59.7639 221.494C60.3512 219.123 60.0576 216.879 58.9877 214.739C57.2886 211.362 54.3938 209.495 50.8278 208.635H50.8068Z" fill="black"/>
<path d="M220.383 208.236C217.216 208.362 214.279 209.537 212.181 211.571C209.874 213.606 208.447 216.606 208.594 220.34C208.825 226.003 212.769 230.66 218.81 231.29C222.607 231.688 225.879 230.388 228.187 228.143C230.704 225.919 232.193 222.668 232.151 219.186C232.172 217.025 231.69 214.991 230.515 213.187C228.124 209.537 224.579 208.068 220.383 208.236Z" fill="black"/>
<path d="M264.518 125.233C262.316 122.968 259.232 121.583 255.834 121.583C249.121 121.583 243.688 127.017 243.688 133.729C243.688 140.442 249.121 145.875 255.834 145.875C262.547 145.875 267.98 140.442 267.98 133.729C267.98 131.673 267.455 129.723 266.553 128.023C266.05 126.975 265.358 126.052 264.518 125.254V125.233Z" fill="black"/>
<path d="M199.447 119.191C204.356 119.254 208.677 117.366 211.802 114.345C215.138 111.303 217.193 106.982 217.214 102.241C217.214 92.9276 210.103 85.2711 201.167 85.292C196.363 85.292 191.937 86.9073 188.728 89.823C185.435 92.613 183.337 96.7034 183.316 101.843C183.253 111.052 189.798 119.233 199.468 119.212L199.447 119.191Z" fill="black"/>
<path d="M115.204 79.3367C118.371 76.4629 120.28 72.3304 120.259 67.4219C120.217 57.4998 113.043 50.032 104.17 50.1789C99.6181 50.1789 95.213 51.7521 91.9616 54.7099C88.6263 57.5418 86.4237 61.7371 86.4027 67.1072C86.3398 77.0712 94.2061 84.0565 103.184 83.9516C108.072 83.8887 112.267 82.2105 115.225 79.3367H115.204Z" fill="black"/>
<path d="M143.523 57.4345C141.887 60.8328 141.593 64.3569 142.537 68.0279C143.796 72.9155 146.418 76.8381 150.739 79.4812C155.081 82.1243 159.717 82.3131 164.479 80.551C166.807 79.691 168.821 78.4743 170.499 76.985C174.128 73.9224 176.142 69.6221 176.1 64.8184C175.932 63.4759 175.869 62.1124 175.555 60.8118C174.443 56.1969 172.052 52.463 167.961 49.9039C165.36 48.2886 162.486 47.4705 159.445 47.6803C157.473 47.8271 155.48 48.3096 153.592 48.9389C151.306 49.7151 149.271 50.8059 147.551 52.2952C145.894 53.6377 144.509 55.3159 143.502 57.4136L143.523 57.4345Z" fill="black"/>
<path d="M219.836 59.0912C223.025 59.0912 225.92 57.9585 228.038 56.0496C229.381 54.9588 230.451 53.5743 231.122 51.9381C232.108 49.5678 232.15 47.0715 231.478 44.6172C229.653 37.8207 223.088 33.5205 215.851 36.5831C214.529 37.1495 213.354 37.9466 212.327 38.8905C209.264 41.5336 207.607 45.6031 208.383 49.5048C209.558 55.2525 214.131 59.1122 219.815 59.1122L219.836 59.0912Z" fill="black"/>
<path d="M47.4489 59.4491C50.7842 59.5121 53.4273 58.2744 55.3362 56.4075C58.0212 54.0371 59.4267 50.492 59.4477 47.3874C59.5106 40.6119 53.3434 35.7453 47.9943 35.8082C44.7639 35.8502 41.8271 37.1298 39.7085 39.1855C37.38 41.2412 35.8907 44.157 35.8697 47.4084C35.8487 53.5756 41.03 59.575 47.4489 59.4282V59.4491Z" fill="black"/>
<path d="M12.1456 121.874C5.433 121.874 0 127.307 0 134.02C0 140.732 5.433 146.165 12.1456 146.165C18.8582 146.165 24.2912 140.732 24.2912 134.02C24.2912 127.307 18.8582 121.874 12.1456 121.874Z" fill="black"/>
<path d="M133.517 24.2912C139.873 24.2912 145.075 19.4036 145.599 13.1944C145.704 12.6071 145.767 12.0197 145.746 11.4743C145.599 5.95742 140.397 -0.209769 134.251 0.0419537C134.251 0.0419537 134.23 0.0419537 134.209 0.0419537C133.978 0.0419537 133.747 0 133.496 0C126.783 0 121.35 5.433 121.35 12.1456C121.35 18.8582 126.783 24.2912 133.496 24.2912H133.517Z" fill="black"/>
</svg>
