<svg width="346" height="229" viewBox="0 0 346 229" fill="none" xmlns="http://www.w3.org/2000/svg">
<path d="M216.115 73.0667C238.431 79.7944 274.698 74.3027 279.81 73.5644C281.503 73.3156 289.786 72.0215 300.126 69.566C300.774 59.4372 307.728 50.9924 317.106 48.1387C295.18 44.7625 267.071 49.0181 262.615 49.6734C258.938 50.2043 223.958 55.6876 204.679 67.3677C207.675 69.8564 211.609 71.7145 216.107 73.0667H216.115Z" fill="black"/>
<path d="M309.729 90.3462C297.621 92.4035 287.77 95.0829 285.313 95.7466C282.35 96.5429 258.482 103.171 240.258 113.267L230.033 118.932C249.013 127.775 272.367 132.471 293.43 125.436C309.721 120.003 323.887 106.738 332.95 93.4321C330.211 94.5271 327.223 95.1327 324.095 95.1327C318.708 95.1327 313.737 93.3575 309.729 90.3545V90.3462Z" fill="black"/>
<path d="M45.0223 69.566C55.3629 72.0215 63.6537 73.3156 65.3384 73.5644C70.4506 74.3027 106.717 79.7944 129.033 73.0667C133.532 71.7062 137.465 69.8564 140.461 67.3677C121.183 55.6876 86.2022 50.2043 82.5257 49.6734C78.0774 49.0181 49.9602 44.7625 28.0342 48.1387C37.4121 50.9924 44.3667 59.4372 45.014 69.566H45.0223Z" fill="black"/>
<path d="M115.124 118.932L104.9 113.267C86.6748 103.171 62.8151 96.5512 59.844 95.7466C57.3875 95.0829 47.5365 92.4035 35.4282 90.3462C31.4198 93.3492 26.4404 95.1244 21.0626 95.1244C17.9339 95.1244 14.9462 94.5188 12.2075 93.4238C21.2701 106.73 35.4365 119.994 51.7276 125.428C72.7905 132.471 96.144 127.767 115.124 118.924V118.932Z" fill="black"/>
<path d="M237.841 108.572C238.588 108.937 239.344 109.302 240.107 109.65C258.589 99.7368 281.81 93.3327 284.457 92.6193L284.615 92.5778C292.084 90.562 299.52 88.8863 306.64 87.6005C302.956 83.7016 300.566 78.5833 300.142 72.9092C289.835 75.3232 281.718 76.5675 280.283 76.7832L279.909 76.8413C264.041 79.1474 251.834 79.6368 244.389 79.6368C233.957 79.6368 225.061 78.7326 217.891 76.9325C217.135 76.7417 216.347 76.9242 215.758 77.4219L215.716 77.4551C214.455 78.5335 214.712 80.5493 216.198 81.271C226.347 86.1737 231.269 91.3501 231.202 97.0076C231.202 97.0242 231.202 97.0491 231.202 97.0657C231.103 101.894 233.501 106.448 237.833 108.58L237.841 108.572Z" fill="black"/>
<path d="M168.754 223.34C170.164 225.156 171.725 226.799 173.401 228.234C174.804 227.039 176.123 225.696 177.343 224.219C180.447 220.478 182.912 215.915 184.513 210.805C181.103 212.481 177.385 213.41 173.501 213.41C169.534 213.41 165.749 212.448 162.28 210.706C162.28 210.73 162.28 210.764 162.28 210.789C163.758 215.517 165.973 219.781 168.754 223.348V223.34Z" fill="black"/>
<path d="M171.888 209.461C172.295 209.461 173.938 209.461 174.353 209.461C186.818 209.187 197.739 195.5 203.607 178.842C200.088 183.347 195.939 187.055 191.349 189.768C193.748 185.429 195.731 180.244 197.167 174.454C201.225 170.987 204.777 166.656 207.665 161.679C207.665 161.679 207.665 161.679 207.665 161.662C208.014 158.809 208.196 155.972 208.196 153.193C208.196 151.476 208.171 149.8 208.113 148.191C205.707 152.521 202.794 156.37 199.499 159.622C199.681 157.183 199.781 154.686 199.781 152.156C199.781 150.837 199.748 149.534 199.698 148.24C202.586 145.354 205.184 142.027 207.391 138.302C206.968 134.702 206.387 131.392 205.657 128.373C203.557 131.475 201.167 134.254 198.561 136.685C198.03 133.408 197.333 130.281 196.495 127.327C198.918 125.336 201.184 123.047 203.233 120.492C200.42 113.242 185.357 81.445 182.303 77.9858C179.797 75.1653 176.867 73.3735 173.739 73.3071C173.539 73.3071 172.734 73.3071 172.527 73.3071C169.324 73.3735 166.336 75.2483 163.796 78.1932C160.751 81.7188 146.003 113.026 143.215 120.027C145.356 122.773 147.746 125.212 150.319 127.327C149.481 130.281 148.783 133.416 148.252 136.693C145.472 134.105 142.949 131.118 140.75 127.775C140.011 130.745 139.414 133.997 138.974 137.531C141.281 141.571 144.028 145.179 147.115 148.265C147.065 149.559 147.032 150.862 147.032 152.172C147.032 154.703 147.132 157.191 147.314 159.622C143.779 156.138 140.692 151.973 138.186 147.27C138.111 149.186 138.078 151.169 138.078 153.218C138.078 155.607 138.21 158.037 138.476 160.476C141.472 165.968 145.273 170.705 149.646 174.446C151.082 180.261 153.074 185.454 155.472 189.801C150.435 186.823 145.929 182.65 142.211 177.548C147.962 194.795 159.132 209.212 171.921 209.494L171.888 209.461Z" fill="black"/>
<path d="M128.943 81.2627C130.429 80.541 130.686 78.5252 129.433 77.4468L129.392 77.4136C128.802 76.9076 128.014 76.7334 127.259 76.9242C120.097 78.716 111.2 79.6285 100.76 79.6285C93.3157 79.6285 81.0995 79.1474 65.24 76.8329L64.8665 76.7749C63.4308 76.5592 55.3143 75.3149 45.0069 72.9009C44.5837 78.5667 42.1936 83.6933 38.5088 87.5922C45.6294 88.878 53.0653 90.5537 60.5344 92.5695L60.6921 92.611C63.3395 93.3244 86.5602 99.7368 105.042 109.642C105.806 109.293 106.561 108.937 107.308 108.563C111.64 106.44 114.038 101.877 113.939 97.0491C113.939 97.0325 113.939 97.0076 113.939 96.991C113.872 91.3335 118.794 86.1571 128.943 81.2544V81.2627Z" fill="black"/>
<path d="M118.885 97.6464C118.984 99.6291 120.719 101.977 123.565 104.275C123.59 104.291 123.615 104.316 123.64 104.333C128.744 108.422 136.13 108.132 140.952 103.719C149.807 95.6223 154.936 87.443 154.122 81.8518C153.923 80.4997 153.5 79.189 152.878 77.9363C152.363 76.8994 151.16 76.4017 150.056 76.7501H150.048C149.085 77.0487 143.583 78.7991 137.466 81.5117C128.661 85.4106 118.569 91.2921 118.885 97.6464Z" fill="black"/>
<path d="M222.381 104.324C225.236 102.035 226.979 99.6954 227.087 97.7128C227.427 91.3584 217.361 85.4437 208.572 81.5117C202.464 78.7741 196.97 76.9989 196.007 76.7086H195.999C194.895 76.3519 193.692 76.8496 193.169 77.8782C192.538 79.1309 192.115 80.4332 191.907 81.7854C191.077 87.3683 196.165 95.5725 204.995 103.702C209.808 108.132 217.186 108.455 222.307 104.382C222.332 104.366 222.357 104.341 222.381 104.324Z" fill="black"/>
<path d="M25.3462 84.7298C31.1306 82.9048 35.3465 77.4878 35.3465 71.1086C35.3465 70.8763 35.3216 70.6523 35.3133 70.4201C35.2553 69.1923 35.0561 67.9978 34.7075 66.8779C32.8983 61.0627 27.4625 56.832 21.0639 56.832C18.2422 56.832 15.6197 57.6616 13.3956 59.0801C9.42034 61.6185 6.77295 66.0566 6.77295 71.1086C6.77295 78.981 13.1798 85.3851 21.0556 85.3851C22.5494 85.3851 23.9852 85.1529 25.3462 84.7298ZM17.6032 71.1086C17.6032 69.2006 19.1551 67.6494 21.0639 67.6494C21.4291 67.6494 21.7776 67.724 22.1096 67.8319C23.5038 68.2798 24.5246 69.5656 24.5246 71.1086C24.5246 72.9004 23.1553 74.3604 21.4042 74.5346C21.288 74.5429 21.1801 74.5678 21.0639 74.5678C19.1551 74.5678 17.6032 73.0165 17.6032 71.1086Z" fill="black"/>
<path d="M10.5647 89.3592C10.8634 89.5334 11.1705 89.6993 11.4859 89.857C11.6104 89.9233 11.7348 89.9814 11.8593 90.0478C12.2826 90.2551 12.7141 90.4542 13.154 90.6284C12.7141 90.4459 12.2826 90.2551 11.8593 90.0478C12.2826 90.2551 12.7141 90.4542 13.154 90.6284C15.5939 91.6239 18.2662 92.1714 21.063 92.1714C23.8597 92.1714 26.3826 91.6571 28.7645 90.7197C26.3743 91.6571 23.7767 92.1714 21.063 92.1714C19.3866 92.1714 17.7516 91.9723 16.1831 91.599C17.7516 91.9723 19.3783 92.1714 21.063 92.1714C24.6896 92.1714 28.1006 91.2589 31.0799 89.6413C32.4575 88.8947 33.7356 87.9822 34.9058 86.9618C35.2626 86.6466 35.6278 86.3397 35.9597 85.9996C36.4328 85.5267 36.8892 85.0207 37.3208 84.5064C38.1839 83.4694 38.9391 82.3412 39.5864 81.1467C41.0471 78.4589 41.9102 75.4145 42.0761 72.1876C42.0927 71.8225 42.1342 71.4658 42.1342 71.1008C42.1342 70.3294 42.0844 69.5662 42.0097 68.8196C41.935 68.1559 41.8438 67.5006 41.711 66.8535C41.2877 64.7963 40.5657 62.8468 39.5947 61.055C39.2711 60.4577 38.9142 59.877 38.5407 59.3212C37.4038 57.6372 36.0344 56.1358 34.4742 54.8417C30.8309 51.8387 26.1586 50.0303 21.0713 50.0303C20.3326 50.0303 19.6106 50.0718 18.8969 50.1381C14.6561 50.5695 10.7805 52.2618 7.66831 54.8334C6.10809 56.1192 4.73045 57.6289 3.60178 59.3129C3.22003 59.877 2.87147 60.4494 2.54781 61.0467C1.57682 62.8385 0.854801 64.788 0.43155 66.8452C0.149383 68.214 0 69.6325 0 71.0925C0 74.726 0.921193 78.152 2.54781 81.1384C3.19513 82.3329 3.95864 83.4528 4.81344 84.4981C5.24499 85.0207 5.69314 85.5184 6.17449 85.9913C7.05418 86.8706 8.01687 87.6586 9.03765 88.3721C9.41941 88.6375 9.81776 88.8947 10.2161 89.1353C9.81776 88.8947 9.41941 88.6458 9.03765 88.3721C9.41941 88.6375 9.81776 88.8947 10.2161 89.1353C10.3323 89.2099 10.4568 89.2763 10.573 89.3426L10.5647 89.3592ZM10.5647 89.3592C10.8634 89.5334 11.1705 89.6993 11.4859 89.857C11.1788 89.6993 10.8717 89.5334 10.5647 89.3592ZM4.82174 71.1091C4.82174 65.7751 7.41934 61.055 11.4029 58.0935C14.1084 56.086 17.4446 54.8831 21.063 54.8831C28.7645 54.8831 35.2211 60.2752 36.8726 67.484C37.1299 68.6039 37.2793 69.7653 37.2876 70.9598C37.2876 71.0096 37.2876 71.0594 37.2876 71.1091C37.2876 77.6958 33.3372 83.3699 27.6856 85.9083C25.6606 86.8208 23.4199 87.3351 21.0547 87.3351C12.1 87.3351 4.82174 80.0517 4.82174 71.1091Z" fill="black"/>
<path d="M344.743 66.8701C344.319 64.8129 343.597 62.8634 342.626 61.0716C342.303 60.4743 341.946 59.8936 341.572 59.3378C340.436 57.6538 339.066 56.1524 337.506 54.8583C334.386 52.2867 330.518 50.5944 326.277 50.163C325.564 50.0884 324.833 50.0552 324.103 50.0552C319.007 50.0552 314.343 51.8636 310.7 54.8666C309.14 56.1524 307.762 57.6621 306.634 59.3461C306.252 59.9102 305.903 60.4826 305.58 61.0799C304.609 62.8717 303.887 64.8212 303.463 66.8784C303.33 67.5255 303.231 68.1808 303.165 68.8445C303.082 69.5911 303.04 70.3543 303.04 71.1257C303.04 71.4907 303.073 71.8474 303.098 72.2125C303.264 75.4394 304.127 78.4838 305.588 81.1716C306.235 82.3661 306.999 83.486 307.853 84.5313C308.285 85.0539 308.733 85.5516 309.215 86.0245C309.555 86.3646 309.912 86.6715 310.268 86.9867C311.439 88.0071 312.717 88.9196 314.094 89.6662C317.074 91.2755 320.485 92.1963 324.111 92.1963C328.593 92.1963 332.734 90.7861 336.153 88.4053C337.174 87.6918 338.137 86.9038 339.016 86.0245C339.489 85.5516 339.946 85.0456 340.377 84.5313C341.241 83.4943 341.996 82.3661 342.643 81.1716C344.27 78.1852 345.191 74.7675 345.191 71.1257C345.191 69.674 345.041 68.2555 344.759 66.8784L344.743 66.8701ZM324.095 92.1797C322.286 92.1797 320.526 91.9474 318.841 91.5161C320.518 91.9474 322.277 92.1797 324.095 92.1797ZM324.095 87.3434C321.729 87.3434 319.489 86.8208 317.464 85.9166C311.812 83.3782 307.862 77.7041 307.862 71.1174C307.862 71.0677 307.862 71.0179 307.862 70.9681C307.87 69.7736 308.019 68.6122 308.277 67.4923C309.928 60.2835 316.385 54.8915 324.086 54.8915C327.705 54.8915 331.041 56.0943 333.746 58.1018C337.73 61.0633 340.328 65.7834 340.328 71.1174C340.328 80.0683 333.041 87.3434 324.095 87.3434Z" fill="black"/>
<path d="M331.763 59.0801C329.547 57.6616 326.916 56.832 324.095 56.832C317.688 56.832 312.26 61.0627 310.451 66.8779C310.102 68.0061 309.903 69.2006 309.845 70.4201C309.837 70.6523 309.812 70.8763 309.812 71.1086C309.812 77.4878 314.02 82.9048 319.812 84.7298C321.165 85.1529 322.609 85.3851 324.103 85.3851C331.979 85.3851 338.386 78.981 338.386 71.1086C338.386 66.0566 335.738 61.6185 331.763 59.0801ZM324.095 74.5678C323.978 74.5678 323.871 74.5429 323.754 74.5346C322.003 74.3604 320.634 72.9004 320.634 71.1086C320.634 69.5656 321.655 68.2715 323.049 67.8319C323.381 67.724 323.73 67.6494 324.095 67.6494C326.003 67.6494 327.555 69.2006 327.555 71.1086C327.555 73.0165 326.003 74.5678 324.095 74.5678Z" fill="black"/>
<path d="M142.985 9.54812C144.031 9.54812 144.993 9.19971 145.782 8.62732C148.769 10.5768 152.13 13.4553 154.96 17.6196C157.79 21.784 159.234 25.9649 159.948 29.532C153.832 32.4354 149.798 37.2136 149.226 42.1577C149.11 43.12 149.126 44.1486 149.259 45.2022C149.666 48.4623 151.184 52.0791 153.682 55.4139C155.774 58.2095 158.562 60.806 161.948 62.8218C164.944 64.5888 168.413 65.8994 172.305 66.4801C172.546 66.505 172.795 66.5382 173.036 66.5548C173.276 66.5299 173.5 66.4967 173.741 66.4801C177.725 65.8911 181.277 64.5224 184.322 62.6808C187.725 60.6318 190.505 57.9772 192.58 55.1402C195.095 51.6893 196.563 47.9563 196.846 44.6381C196.92 43.7836 196.904 42.9458 196.812 42.1577C196.248 37.2136 192.206 32.4271 186.09 29.5237C186.804 25.9566 188.248 21.7757 191.078 17.6113C193.908 13.447 197.269 10.5685 200.257 8.61902C201.045 9.19141 202.008 9.53982 203.053 9.53982C205.692 9.53982 207.825 7.39958 207.825 4.76991C207.825 2.14024 205.684 0 203.053 0C200.423 0 198.281 2.14024 198.281 4.76991C198.281 4.92753 198.315 5.07685 198.331 5.22616C194.937 7.40788 191.086 10.668 187.858 15.4296C184.87 19.8345 183.252 24.256 182.405 28.1051C179.559 27.2175 176.405 26.7115 173.036 26.7115C169.666 26.7115 166.488 27.2258 163.641 28.1134C162.795 24.2726 161.185 19.8428 158.189 15.4379C154.952 10.6763 151.11 7.42447 147.715 5.23446C147.732 5.08514 147.765 4.93582 147.765 4.77821C147.765 2.14024 145.624 0.00829549 142.993 0.00829549C140.362 0.00829549 138.221 2.14853 138.221 4.77821C138.221 7.40788 140.362 9.54812 142.993 9.54812H142.985Z" fill="black"/>
</svg>
