<svg width="245" height="151" viewBox="0 0 245 151" fill="none" xmlns="http://www.w3.org/2000/svg">
<g clip-path="url(#clip0_296_1024)">
<path d="M7.30484 119.969H47.3727V113.784H7.30484V105.995H47.3727V99.584H0V131.924H7.30484V119.969Z" fill="black"/>
<path d="M75.6878 99.584L44.8438 131.924H54.3106L59.5942 126.244H94.0544L99.3379 131.924H108.758L77.9565 99.584H75.6878ZM65.1549 120.246L76.8264 107.696L88.498 120.246H65.1549Z" fill="black"/>
<path d="M172.208 99.584L143.039 120.564L113.824 99.584H112.805V131.924H120.11V112.274L143.039 128.808L165.969 112.317V131.924H173.227V99.584H172.208Z" fill="black"/>
<path d="M189.077 99.584H181.772V131.924H189.077V99.584Z" fill="black"/>
<path d="M245 111.951V111.722C245 103.631 240.386 99.584 231.162 99.584H197.627V131.924H204.932V123.494H230.616L235.764 131.924H243.525L237.491 122.762C242.497 121.389 245 117.784 245 111.951ZM238.335 111.862C238.335 113.724 237.793 115.076 236.71 115.918C235.627 116.759 233.793 117.176 231.205 117.176H204.932V105.999H231.205C233.738 105.999 235.555 106.458 236.668 107.372C237.776 108.291 238.335 109.711 238.335 111.632V111.862Z" fill="black"/>
<path d="M164.139 40.6728C164.075 37.6628 163.674 34.6316 162.945 31.6684C162.229 28.786 161.21 25.9843 159.913 23.34L159.76 23.0254L150.139 26.5328L150.348 26.9281C151.717 29.5002 152.715 32.2424 153.316 35.078C153.948 38.0327 154.148 41.0767 153.909 44.1207C153.909 44.2142 153.896 44.3205 153.888 44.4225C153.585 47.8449 152.753 51.1439 151.41 54.2432C148.609 60.7137 143.641 66.1257 137.427 69.4801C132.178 72.3242 126.242 73.5996 120.259 73.1788C120.148 73.1745 120.029 73.1618 119.909 73.1532L119.743 73.1405C116.221 72.8344 112.826 71.9586 109.649 70.5387L109.21 70.3431L126.66 63.9788V53.801L89.6069 67.3204L89.9438 67.7413C91.9864 70.3048 94.3276 72.6218 96.9075 74.6327C98.4 75.8018 99.9736 76.8647 101.586 77.7957C106.89 80.8822 112.698 82.7188 118.856 83.2545H118.899C119.069 83.2715 119.231 83.2885 119.389 83.297C125.368 83.7434 131.227 82.9271 136.813 80.8695C150.344 75.8911 160.22 64.5145 163.222 50.4425C163.581 48.7887 163.837 47.0669 163.99 45.3281C164.127 43.7891 164.173 42.2203 164.139 40.6771V40.6728Z" fill="black"/>
<path d="M94.6432 56.4838C93.2829 53.916 92.285 51.1738 91.6752 48.3339C91.0441 45.3792 90.8436 42.3352 91.0825 39.2913C91.0825 39.1977 91.0952 39.0914 91.1038 38.9894C91.4065 35.5586 92.2381 32.2595 93.5814 29.1645C96.3788 22.6982 101.347 17.2904 107.568 13.9319C112.98 10.9984 119.095 9.73577 125.257 10.2714L125.415 10.2842C125.538 10.297 125.658 10.3055 125.786 10.3225C129.116 10.6668 132.336 11.5298 135.351 12.8775L135.79 13.0731L106.089 23.9098V34.0876L155.393 16.1001L155.056 15.6792C153.014 13.1199 150.673 10.7986 148.093 8.78772C146.613 7.63134 145.039 6.5685 143.415 5.6247C138.272 2.63174 132.647 0.812154 126.694 0.221214C126.506 0.199957 126.327 0.182952 126.144 0.165946C124.907 0.0596623 123.679 0.00439453 122.451 0.00439453C117.573 0.00439453 112.788 0.858919 108.187 2.55096C94.6475 7.52506 84.7755 18.8932 81.7776 32.9695C81.4194 34.6318 81.1636 36.3578 81.01 38.0881C80.8736 39.6271 80.8267 41.1916 80.8608 42.7349C80.9248 45.7491 81.3256 48.7803 82.0548 51.7435C82.7712 54.6302 83.7904 57.4318 85.0868 60.0677L85.2403 60.3823L94.8521 56.8792L94.6432 56.488V56.4838Z" fill="black"/>
<path d="M137.359 41.387V31.2007L106.089 42.6028V52.7806L137.359 41.387Z" fill="black"/>
<path d="M25.5479 143.241V144.725H21.2111V150.821H19.7271V144.725H15.4414V143.241H25.5479Z" fill="black"/>
<path d="M29.6543 143.241H39.1809V144.725H31.1383V146.294H38.9293V147.769H31.1383V149.338H39.1809V150.821H29.6543V143.241Z" fill="black"/>
<path d="M45.1382 150.821H43.0742L46.8226 147.029L43.0742 143.237L45.1382 143.229L47.8972 146.017H49.33L52.0891 143.229L54.153 143.237L50.4046 147.029L54.153 150.821H52.0805L49.2916 148.011H47.9441L45.1424 150.821H45.1382Z" fill="black"/>
<path d="M68.2554 143.241V144.725H63.9186V150.821H62.4346V144.725H58.1489V143.241H68.2554Z" fill="black"/>
<path d="M72.8481 143.241H74.3321V150.821H72.8481V143.241Z" fill="black"/>
<path d="M79.0359 150.8L79.0273 143.241H80.5113V149.338H88.6264V150.821L79.0359 150.8Z" fill="black"/>
<path d="M92.8394 143.241H102.366V144.725H94.3233V146.294H102.114V147.769H94.3233V149.338H102.366V150.821H92.8394V143.241Z" fill="black"/>
<path d="M124.084 150.821H122.106L121.001 150.086C119.828 150.698 118.681 151 117.56 151C116.332 151 115.406 150.906 114.779 150.719C114.153 150.532 113.841 149.958 113.841 148.997C113.841 148.415 114.02 147.973 114.379 147.671C114.737 147.369 115.338 147.076 116.191 146.795C115.765 146.481 115.462 146.183 115.291 145.911C115.121 145.639 115.031 145.358 115.031 145.069C115.031 144.636 115.172 144.287 115.449 144.023C115.726 143.76 116.084 143.564 116.524 143.432C116.963 143.305 117.573 143.237 118.349 143.237H121.381V144.648H118.549C118.199 144.648 117.935 144.661 117.76 144.687C117.585 144.712 117.411 144.789 117.236 144.912C117.074 145.018 116.993 145.163 116.993 145.345C116.993 145.401 117.001 145.465 117.014 145.537C117.078 145.83 118.349 146.804 120.826 148.453C121.304 148.096 121.543 147.429 121.543 146.451V146.238H123.197C123.146 147.616 122.775 148.636 122.08 149.304L124.093 150.821H124.084ZM117.675 149.58C118.281 149.567 118.924 149.38 119.611 149.023L117.189 147.463C116.136 147.713 115.611 148.109 115.611 148.64V148.662C115.624 149.116 115.807 149.384 116.153 149.461C116.498 149.537 116.959 149.576 117.526 149.576H117.675V149.58Z" fill="black"/>
<path d="M146.929 150.821H145.223L144.182 149.274H138.106L137.087 150.821H135.381L140.204 143.241H142.097L146.929 150.821ZM141.057 144.729L138.984 147.794H143.334L141.249 144.729H141.061H141.057Z" fill="black"/>
<path d="M158.255 149.295H152.118V150.821H150.634V143.241H158.255C158.583 143.241 158.89 143.301 159.176 143.424C159.461 143.547 159.709 143.713 159.922 143.93C160.135 144.142 160.306 144.393 160.425 144.678C160.549 144.963 160.609 145.269 160.609 145.601V146.94C160.609 147.263 160.549 147.569 160.425 147.854C160.302 148.139 160.135 148.394 159.922 148.606C159.709 148.819 159.457 148.989 159.176 149.112C158.89 149.236 158.583 149.295 158.255 149.295ZM159.129 146.498V146.056C159.129 145.864 159.103 145.69 159.056 145.528C159.009 145.367 158.924 145.227 158.809 145.108C158.694 144.989 158.545 144.895 158.361 144.827C158.178 144.759 157.952 144.729 157.688 144.729H152.118V147.816H157.688C158.208 147.816 158.579 147.697 158.796 147.459C159.018 147.22 159.129 146.902 159.129 146.502V146.498Z" fill="black"/>
<path d="M172.344 149.295H166.208V150.821H164.724V143.241H172.344C172.672 143.241 172.979 143.301 173.265 143.424C173.551 143.547 173.798 143.713 174.011 143.93C174.225 144.142 174.395 144.393 174.515 144.678C174.638 144.963 174.698 145.269 174.698 145.601V146.94C174.698 147.263 174.638 147.569 174.515 147.854C174.391 148.139 174.225 148.394 174.011 148.606C173.798 148.819 173.547 148.989 173.265 149.112C172.979 149.236 172.672 149.295 172.344 149.295ZM173.214 146.498V146.056C173.214 145.864 173.188 145.69 173.141 145.528C173.095 145.367 173.009 145.227 172.894 145.108C172.779 144.989 172.63 144.895 172.446 144.827C172.263 144.759 172.037 144.729 171.773 144.729H166.203V147.816H171.773C172.293 147.816 172.664 147.697 172.881 147.459C173.103 147.22 173.214 146.902 173.214 146.502V146.498Z" fill="black"/>
<path d="M188.531 150.821H186.826L185.785 149.274H179.713L178.694 150.821H176.988L181.811 143.241H183.704L188.536 150.821H188.531ZM182.659 144.729L180.587 147.794H184.937L182.851 144.729H182.664H182.659Z" fill="black"/>
<path d="M202.092 150.821H200.28L198.775 148.632H193.721V150.821H192.237V143.241H199.858C200.186 143.241 200.493 143.301 200.779 143.42C201.065 143.539 201.312 143.696 201.525 143.892C201.738 144.087 201.909 144.317 202.033 144.572C202.156 144.827 202.216 145.091 202.216 145.354V146.459C202.216 146.685 202.169 146.91 202.075 147.144C201.981 147.374 201.853 147.59 201.696 147.786C201.538 147.981 201.355 148.147 201.15 148.288C200.941 148.424 200.732 148.513 200.514 148.555L202.092 150.817V150.821ZM200.736 146.094V145.724C200.736 145.592 200.706 145.46 200.647 145.341C200.587 145.218 200.506 145.112 200.399 145.023C200.293 144.933 200.169 144.861 200.02 144.806C199.875 144.755 199.708 144.725 199.525 144.725H193.726V147.148H199.525C199.743 147.148 199.926 147.118 200.079 147.055C200.229 146.991 200.357 146.91 200.455 146.808C200.553 146.706 200.625 146.596 200.672 146.472C200.719 146.349 200.74 146.226 200.74 146.098L200.736 146.094Z" fill="black"/>
<path d="M206.327 143.241H215.853V144.725H207.811V146.294H215.602V147.769H207.811V149.338H215.853V150.821H206.327V143.241Z" fill="black"/>
<path d="M219.968 150.8L219.956 143.241H221.44V149.338H229.555V150.821L219.964 150.8H219.968Z" fill="black"/>
</g>
<defs>
<clipPath id="clip0_296_1024">
<rect width="245" height="151" fill="white"/>
</clipPath>
</defs>
</svg>
