<svg width="281" height="66" viewBox="0 0 281 66" fill="none" xmlns="http://www.w3.org/2000/svg">
<g clip-path="url(#clip0_296_1086)">
<path fill-rule="evenodd" clip-rule="evenodd" d="M21.0162 49.4121C44.6671 64.0658 64.2785 28.2523 39.5739 15.9432C38.3446 15.4157 37.0566 15.0054 35.6516 14.7123C33.8954 14.3606 32.9002 14.4778 31.9635 13.3056C30.4414 11.3713 31.3196 7.50271 35.476 8.14747C68.6691 13.8917 61.5271 62.9521 28.1583 58.8491C24.9971 58.3802 22.3627 56.6217 20.5479 59.4352C19.7283 60.7247 20.0796 62.3659 20.8991 63.3624C21.6016 64.2416 22.9481 64.5933 24.4116 64.945C47.1844 71.1581 69.3131 48.1226 62.9321 25.4974C61.1173 18.4636 57.4291 12.8366 51.9848 8.32332C46.3648 4.16168 38.93 0.175892 31.4366 1.75849C24.4702 3.98584 22.4798 13.1297 27.2216 17.9947C29.1535 19.9876 30.5585 20.7496 34.2466 21.2185C45.0769 23.27 48.0625 37.7478 38.8714 43.961C34.5394 47.0675 27.6314 46.7159 23.7091 42.9059C20.3137 40.151 18.5575 34.2896 20.1966 29.7762C22.5969 13.9503 0.233939 12.3677 0.175397 30.1865C-0.234395 34.8171 0.116855 39.4476 1.69748 43.7851C2.9854 46.4814 6.90769 46.0711 7.78581 43.3748C8.25415 41.8508 7.55165 40.6786 7.25894 39.2132C6.32227 34.8171 6.43936 29.9521 7.9029 25.6732C8.42977 24.6182 9.89331 23.9148 11.2983 24.1492C17.211 26.318 10.4202 31.183 14.1083 40.151C16.5085 45.9539 17.1525 43.7851 14.5766 46.4814C13.6985 47.3606 10.3616 50.7603 9.48352 51.5809L6.90769 54.2185C6.20519 54.9219 5.03436 55.8011 5.0929 57.5009C5.20998 60.1972 8.48831 62.0729 10.83 59.6697L21.0162 49.4121Z" fill="black"/>
<path fill-rule="evenodd" clip-rule="evenodd" d="M23.8262 37.5719C28.3339 45.7193 40.6862 42.3197 40.3935 33.1172C36.4126 38.6856 30.3243 40.6199 23.8262 37.5719Z" fill="black"/>
<path fill-rule="evenodd" clip-rule="evenodd" d="M18.9672 0.0585616C15.6889 0.879165 16.9768 5.50972 20.021 4.80634C22.8895 4.16158 22.2455 -0.586199 18.9672 0.0585616Z" fill="black"/>
<path fill-rule="evenodd" clip-rule="evenodd" d="M14.1084 6.74077C11.5912 7.2683 12.118 11.4299 14.9866 10.9024C17.6209 10.3749 16.9184 6.15463 14.1084 6.74077Z" fill="black"/>
<path fill-rule="evenodd" clip-rule="evenodd" d="M19.3772 12.8951C17.0355 13.5399 18.0892 16.9982 20.3724 16.412C22.5384 15.8259 21.7188 12.1918 19.3772 12.8951Z" fill="black"/>
<path d="M74.3477 48.8258V16.7637H81.0799V42.9644H96.9447V48.8258H74.3477Z" fill="black"/>
<path d="M113.512 48.8256C113.336 48.2394 113.161 47.4188 113.102 46.7154C111.58 48.3566 109.121 49.4703 105.902 49.4703C100.516 49.4703 97.9985 46.8327 97.9985 42.9641C97.9985 36.1062 102.565 35.3442 108.887 34.465C112.049 34.0547 112.868 33.4099 112.868 31.7687C112.868 30.2447 111.346 29.3069 108.887 29.3069C106.019 29.3069 104.906 30.7137 104.614 32.8238H98.7596C98.8767 27.9002 101.57 24.4419 109.18 24.4419C116.732 24.4419 119.308 27.8415 119.308 33.8202V48.8256H113.512ZM113.102 37.1613C112.458 37.806 111.346 38.0991 109.063 38.568C105.492 39.2714 104.321 40.2678 104.321 42.2607C104.321 44.0192 105.375 44.8984 107.365 44.8984C110.585 44.8984 112.985 42.5538 113.044 39.7403L113.102 37.1613Z" fill="black"/>
<path d="M122.118 48.8255V16.353H128.265V28.1346C130.021 25.6141 132.362 24.4418 135.29 24.4418C141.436 24.4418 145.007 29.5413 145.007 36.6923C145.007 44.7225 140.734 49.4703 134.763 49.4703C131.894 49.4703 129.67 48.3566 128.147 45.9534L128.089 48.8255H122.118ZM138.685 37.1026C138.685 32.2376 136.929 29.7758 133.299 29.7758C129.845 29.7758 128.03 32.3548 128.03 37.5129C128.03 41.4987 130.372 44.3122 133.358 44.3122C136.519 44.3122 138.685 41.3814 138.685 37.1026Z" fill="black"/>
<path d="M165.38 26.2005C165.029 22.9181 163.038 21.3355 158.999 21.3355C155.252 21.3355 153.262 22.6836 153.262 25.0868C153.262 27.1383 154.667 28.252 158.238 29.1312C161.868 30.0104 165.38 30.8896 167.722 31.9447C170.532 33.1756 172.756 35.1685 172.756 39.7404C172.756 46.7742 167.429 49.9394 159.994 49.9394C152.091 49.9394 146.588 46.4225 146.413 39.2129H152.852C152.969 42.4953 155.721 44.5468 159.994 44.5468C163.975 44.5468 166.2 42.847 166.2 40.0335C166.2 38.1579 165.263 36.8683 161.224 35.9891C157.243 35.1099 154.726 34.5238 152.442 33.5273C149.047 32.0033 147.115 29.6587 147.115 25.6143C147.115 19.8701 151.037 15.7671 158.823 15.7671C166.902 15.7671 171.468 20.1632 171.703 26.3177H165.38V26.2005Z" fill="black"/>
<path d="M180.308 38.568C180.484 42.1435 182.532 44.4881 185.635 44.4881C187.684 44.4881 189.44 43.4916 189.909 41.8504H196.348C194.885 46.7154 191.021 49.4703 185.928 49.4703C178.025 49.4703 174.044 45.1328 174.044 36.5165C174.044 29.1897 178.259 24.4419 185.518 24.4419C192.777 24.4419 196.641 29.1897 196.641 38.568H180.308ZM190.201 34.6408C190.084 31.124 187.801 29.4241 185.342 29.4241C182.825 29.4241 180.776 31.3584 180.542 34.6408H190.201Z" fill="black"/>
<path d="M213.677 48.8256C213.501 48.2394 213.325 47.4188 213.267 46.7154C211.745 48.3566 209.286 49.4703 206.066 49.4703C200.68 49.4703 198.163 46.8327 198.163 42.9641C198.163 36.1062 202.729 35.3442 209.052 34.465C212.213 34.0547 213.033 33.4099 213.033 31.7687C213.033 30.2447 211.511 29.3069 209.052 29.3069C206.183 29.3069 205.071 30.7137 204.778 32.8238H198.924C199.041 27.9002 201.734 24.4419 209.345 24.4419C216.896 24.4419 219.472 27.8415 219.472 33.8202V48.8256H213.677ZM213.208 37.1613C212.564 37.806 211.452 38.0991 209.169 38.568C205.598 39.2714 204.427 40.2678 204.427 42.2607C204.427 44.0192 205.481 44.8984 207.471 44.8984C210.691 44.8984 213.091 42.5538 213.15 39.7403L213.208 37.1613Z" fill="black"/>
<path d="M222.224 48.8256V25.028H228.137V27.9002C230.186 24.735 232.645 24.4419 235.162 24.4419H235.981V30.8895C235.396 30.7723 234.811 30.7723 234.225 30.7723C230.361 30.7723 228.488 32.7065 228.488 36.5165V48.8842H222.224V48.8256Z" fill="black"/>
<path d="M257.642 40.2092C256.939 45.719 252.49 49.4117 246.753 49.4117C240.313 49.4117 235.864 45.1328 235.864 36.6337C235.864 28.1346 240.313 24.4419 246.987 24.4419C253.134 24.4419 257.349 27.9588 257.759 33.5858H251.436C251.085 31.124 249.329 29.6586 246.929 29.6586C244.294 29.6586 242.128 31.3584 242.128 36.5165C242.128 41.6746 244.294 44.195 246.753 44.195C249.212 44.195 251.144 42.7883 251.378 40.2092H257.642Z" fill="black"/>
<path d="M274.677 48.8255V34.0546C274.677 30.4791 273.448 29.3655 270.638 29.3655C267.477 29.3655 265.779 31.9445 265.779 35.1683V48.7669H259.515V16.353H265.779V28.1346C266.716 26.0244 269.584 24.4418 272.746 24.4418C277.605 24.4418 281 27.314 281 32.0031V48.8255H274.677Z" fill="black"/>
</g>
<defs>
<clipPath id="clip0_296_1086">
<rect width="281" height="66" fill="white"/>
</clipPath>
</defs>
</svg>
