<svg width="248" height="80" viewBox="0 0 248 80" fill="none" xmlns="http://www.w3.org/2000/svg">
<path d="M33.2213 15.8476C33.8695 16.0469 34.0523 16.3459 33.9775 16.7445L33.2712 20.8383C33.1631 21.4363 32.7892 21.6893 32.0828 21.6893H19.3104C15.9864 21.6893 14.1167 22.7396 13.7926 24.9321L13.6347 25.6298C13.3605 27.3777 13.9588 28.5276 16.1776 29.3786L25.6842 33.0201C30.5538 34.9213 32.4485 37.2672 31.5011 43.0552L31.2269 44.4505C29.9804 51.8408 23.3823 54.041 14.017 54.041C9.61079 54.0292 5.21338 53.6779 0.870598 52.9907C0.731194 52.9835 0.595389 52.9472 0.473422 52.8845C0.351455 52.8218 0.246505 52.7343 0.16649 52.6288C0.0864744 52.5232 0.0334827 52.4023 0.0115021 52.2751C-0.0104784 52.1479 -0.000871344 52.0177 0.039601 51.8944L0.754259 48.161C0.761895 48.0211 0.801156 47.8843 0.86952 47.7592C0.937884 47.6342 1.03383 47.5237 1.15122 47.4349C1.2686 47.3461 1.40483 47.281 1.55113 47.2436C1.69744 47.2063 1.85058 47.1975 2.00075 47.218H17.3077C20.5569 47.218 22.3436 46.3134 22.7258 44.1515L22.8338 43.4999C23.2078 41.3533 22.3435 40.3567 19.6927 39.3601L9.78719 35.7109C5.51586 34.1777 4.11149 31.3182 5.08376 25.5301L5.24163 24.4338C6.5463 17.0435 12.4381 14.897 22.0776 14.897C25.8181 14.8508 29.5534 15.1695 33.2213 15.8476V15.8476Z" fill="black"/>
<path d="M62.733 34.1405L59.7891 51.4501C59.7508 51.8156 59.5904 52.1607 59.3307 52.4364C59.071 52.7121 58.7251 52.9046 58.3419 52.9866C54.2783 53.7214 50.1462 54.074 46.0075 54.0392C37.9819 54.0392 33.8539 53.2709 35.1449 45.3806C36.3702 38.6273 40.4899 37.4748 47.6109 37.4748H54.4113L54.5758 35.3774C55.0034 32.9727 53.6137 31.9201 50.1354 31.9201H40.457C39.8649 31.9201 39.7087 31.6743 39.8156 31.075L40.5063 27.0722C40.6132 26.4729 40.827 26.373 41.3286 26.3039C44.5614 25.7513 47.8442 25.494 51.1304 25.5356C61.7626 25.5356 63.6375 28.7394 62.733 34.1405ZM47.2573 42.0154C44.5273 42.0154 43.4008 42.8683 43.0225 45.0195C42.5949 47.4242 43.6639 48.0926 47.0436 48.0926C48.8771 48.101 50.7066 47.9336 52.5036 47.5932L53.4657 42.0385L47.2573 42.0154Z" fill="black"/>
<path d="M89.7381 15.4343C89.8608 15.4375 89.9811 15.4671 90.0889 15.5206C90.1967 15.5742 90.2891 15.6501 90.3586 15.7424C90.428 15.8346 90.4726 15.9405 90.4885 16.0513C90.5045 16.1622 90.4914 16.275 90.4504 16.3804L89.7381 20.508C89.7006 20.739 89.566 20.9476 89.3627 21.09C89.1595 21.2323 88.9034 21.2972 88.6486 21.271H84.3324C82.2037 21.271 81.2231 21.5151 80.9801 23.2089L80.4856 25.8411H87.14C87.7434 25.8411 87.9111 26.0853 87.6848 26.688L86.084 31.2582C86.0355 31.4703 85.9025 31.6586 85.7107 31.7868C85.5188 31.915 85.2816 31.974 85.0448 31.9525H79.5302L75.8342 52.8501C75.815 53.0695 75.701 53.273 75.5172 53.416C75.3334 53.5591 75.0948 53.6299 74.8537 53.6131H68.4172C67.8724 53.6131 67.6546 53.3689 67.7048 52.8501L71.4175 31.9296H67.9227C67.269 31.9296 66.9925 31.6855 67.0847 31.1666L67.8557 26.5888C67.906 26.0853 68.2328 25.8259 68.8362 25.8259H72.3813L73.0937 21.8966C74.1832 15.6403 78.9603 14.8926 83.8966 14.8926C85.8577 14.9135 87.8127 15.0948 89.7381 15.4343V15.4343Z" fill="black"/>
<path d="M116.992 39.4287L116.727 40.9644C116.562 41.9625 116.191 42.3157 114.787 42.3157H97.9067C97.2626 46.8151 98.3857 47.6137 103.118 47.6137H112.64C113.176 47.6137 113.391 47.867 113.342 48.3815L112.64 52.5277C112.623 52.7444 112.52 52.9474 112.35 53.0967C112.18 53.2459 111.957 53.3306 111.723 53.3339C108.276 53.8578 104.785 54.0916 101.293 54.0326C90.4247 54.0326 88.2775 51.184 90.21 39.7819C92.1424 28.3798 95.3219 25.5312 106.19 25.5312C116.777 25.5313 118.842 28.28 116.992 39.4287ZM98.6582 37.4785H109.303C110.055 33.0789 109.039 31.9272 105.058 31.9272C101.078 31.9272 99.4676 33.0789 98.6582 37.4785V37.4785Z" fill="black"/>
<path d="M218.609 26.4321C218.766 26.4387 218.919 26.4789 219.057 26.5495C219.194 26.6201 219.312 26.7192 219.401 26.8389C219.49 26.9587 219.548 27.0959 219.569 27.2397C219.591 27.3835 219.576 27.53 219.526 27.6676L215.204 52.951C213.914 60.4026 211.757 63.8271 200.186 63.8271C196.89 63.8501 193.597 63.618 190.342 63.133C189.855 63.0796 189.64 62.8813 189.747 62.3703L190.392 58.595C190.499 58.0458 190.714 57.8323 191.218 57.8323H200.475C205.211 57.8323 206.558 56.8408 207.087 53.5612L207.145 53.2637C204.943 53.6388 202.707 53.8226 200.467 53.8129C190.673 53.8129 188.574 50.6782 190.549 39.2606C192.384 28.4303 195.607 25.5321 206.963 25.5321C210.866 25.5135 214.764 25.8147 218.609 26.4321V26.4321ZM205.525 31.8396C200.252 31.8396 199.5 33.7311 198.426 39.5886C197.351 45.9952 197.938 47.3909 203.319 47.3909C204.958 47.4073 206.597 47.3079 208.22 47.0935L210.856 31.8396H205.525Z" fill="black"/>
<path d="M246.418 26.3136C247.003 26.4593 247.23 26.6588 247.108 27.0806L246.475 30.8774C246.466 30.9916 246.432 31.103 246.376 31.2044C246.32 31.3059 246.242 31.3954 246.147 31.4674C246.053 31.5393 245.944 31.5921 245.827 31.6226C245.71 31.653 245.588 31.6604 245.468 31.6444H235.892C233.886 31.6444 232.716 32.1889 232.456 33.4392L232.4 33.9377C232.245 34.8888 232.773 35.5868 234.519 36.2388L240.919 38.4861C245.2 39.9818 245.792 42.582 245.2 45.9799L245.094 46.7469C244.087 52.5379 239.328 54.0412 232.611 54.0412C228.99 54.0497 225.371 53.8833 221.768 53.5427C221.086 53.5427 220.956 53.3432 220.956 52.7757L221.695 48.7258C221.744 48.1812 222.012 47.9588 222.645 47.9588H233.553C236.355 47.9588 237.248 47.606 237.46 46.256L237.516 45.8112C237.679 44.8601 237.2 44.2081 234.974 43.4641L228.899 41.2628C224.928 39.9128 224.189 36.8677 224.716 33.6693L224.879 32.7259C225.772 27.3568 230.564 25.5312 238.15 25.5312C240.924 25.5687 243.691 25.8304 246.418 26.3136Z" fill="black"/>
<path d="M186.774 40.4242C184.771 51.6596 181.739 54.4666 170.489 54.4666C159.239 54.4666 157.195 51.6596 159.123 40.4242C161.051 29.1888 164.158 26.3818 175.416 26.3818C186.674 26.3818 188.718 29.1207 186.774 40.4242ZM167.191 40.4242C166.102 46.6283 166.65 48.1566 171.569 48.1566C176.488 48.1566 177.626 46.6434 178.714 40.4242C179.803 34.205 179.254 32.6843 174.278 32.6843C169.301 32.6843 168.271 34.2126 167.191 40.4242Z" fill="black"/>
<path d="M135.54 25.5327C137.903 25.5249 140.263 25.7067 142.593 26.0767C143.13 26.23 143.418 26.4299 143.294 27.0815L142.593 31.1753C142.58 31.2922 142.542 31.4057 142.48 31.5083C142.418 31.6109 142.335 31.7013 142.235 31.7729C142.135 31.8447 142.019 31.8962 141.896 31.9253C141.773 31.9543 141.646 31.9602 141.521 31.9419H136.472C133.675 31.9419 132.652 32.3403 132.281 34.4868L125.249 69.2271L126.918 69.3423C127.545 69.3875 127.899 69.8618 127.594 70.2534L120.641 79.6675C120.544 79.778 120.419 79.8657 120.278 79.9233C120.136 79.981 119.981 80.0066 119.827 79.9985C119.672 79.9904 119.522 79.9485 119.388 79.8765C119.255 79.8044 119.142 79.7045 119.059 79.5845L113.976 69.3423C113.762 68.9131 114.24 68.469 114.875 68.5142L117.401 68.687L124.632 32.5698C125.705 26.2838 130.647 25.5327 135.54 25.5327ZM157.624 0.00146484C157.778 0.00912195 157.929 0.0524796 158.063 0.126465C158.197 0.200468 158.311 0.303345 158.394 0.427246L163.483 11.0532C163.697 11.4982 163.219 11.9594 162.592 11.9126L160.053 11.731L152.808 47.4858C151.735 53.7236 146.792 54.4682 141.899 54.4683C139.54 54.4771 137.185 54.2998 134.86 53.937C134.323 53.7927 134.034 53.5869 134.167 52.9487L134.86 48.8921C134.874 48.7766 134.913 48.6643 134.975 48.563C135.037 48.4617 135.121 48.3731 135.221 48.3022C135.321 48.2313 135.436 48.1792 135.558 48.1499C135.68 48.1207 135.808 48.1153 135.933 48.1323H140.991C143.78 48.1323 144.803 47.7368 145.174 45.6099L152.21 11.1724L150.534 11.0532C149.915 11.0064 149.577 10.5148 149.849 10.1089L156.81 0.349121C156.906 0.234066 157.031 0.142955 157.172 0.0825195C157.314 0.0220818 157.469 -0.00617543 157.624 0.00146484Z" fill="black"/>
</svg>
