<svg width="189" height="48" viewBox="0 0 189 48" fill="none" xmlns="http://www.w3.org/2000/svg">
<path d="M34.5685 13.2964C34.5136 20.5952 34.4588 27.8985 34.4085 35.1973H26.3511C26.3511 27.8985 26.3511 20.5952 26.3511 13.2964H34.5639H34.5685Z" fill="black"/>
<path d="M24.1988 9.75434C24.0205 9.50297 23.143 8.27355 23.3579 8.06789C23.4538 7.97648 23.7143 8.15473 24.3405 8.44266C25.5059 8.98196 26.0863 9.2516 26.3605 9.0505C26.7033 8.80371 26.4931 7.88965 26.1046 6.19863C25.8944 5.28457 25.7207 4.76355 25.8624 4.69043C26.0223 4.60359 26.3971 5.22972 27.3066 5.9884C28.0927 6.64195 28.4857 6.97102 28.8285 6.87047C29.2444 6.74707 29.3175 6.09352 29.9757 3.31934C30.2179 2.30473 30.3413 1.83398 30.5012 1.83398C30.6612 1.83398 30.78 2.30473 31.0086 3.3559C31.5981 6.07981 31.6484 6.77907 32.046 6.89332C32.1648 6.92532 32.3157 6.9116 33.5999 5.87414C34.6922 4.99207 35.0898 4.59446 35.2132 4.68586C35.3412 4.78184 35.0167 5.29371 34.7379 6.16207C34.61 6.56426 33.9564 8.5889 34.5643 9.02308C34.939 9.28816 35.7297 8.91797 36.7123 8.45637C37.3202 8.17301 37.6127 7.95363 37.7086 8.04504C37.896 8.23242 37.0368 9.38871 36.8311 9.6675C36.3513 10.3119 35.62 11.1803 34.5643 12.0989C33.2069 12.0989 31.8449 12.0989 30.483 12.0989C29.1027 12.0989 27.7179 12.0989 26.3423 12.0989C25.3368 11.226 24.6512 10.3896 24.1942 9.74519L24.1988 9.75434Z" fill="black"/>
<path d="M60.533 13.3468C58.4581 16.377 56.3877 19.4025 54.3128 22.4326C56.6436 26.6876 58.9791 30.9471 61.3099 35.2021H53.3804C51.1044 31.427 48.8284 27.6519 46.5478 23.8768C46.5935 26.2762 46.6438 28.6757 46.6895 31.0705V35.1975H38.5635V1.75195C41.228 2.27297 43.8925 2.79855 46.5524 3.31957C46.5752 9.63574 46.6027 15.9473 46.6255 22.2635C48.6776 19.2745 50.7297 16.2901 52.7772 13.3011C55.3594 13.3148 57.9416 13.3285 60.5284 13.3423L60.533 13.3468Z" fill="black"/>
<path d="M72.2462 35.1241C71.1402 35.1058 68.5854 35.0373 66.0352 33.4788C64.9657 32.8252 64.2345 32.1169 63.8917 31.7649C62.4703 30.2979 61.8076 28.7805 61.5334 28.0538C61.2546 27.3135 60.7747 25.787 60.857 23.8035C60.9393 21.8062 61.5517 20.2706 61.9996 19.3748C62.2967 18.7761 63.0188 17.4736 64.3213 16.267C67.42 13.3969 71.3779 13.3237 72.3788 13.3237C73.4117 13.3237 77.2644 13.4426 80.3631 16.171C81.7845 17.4233 82.5249 18.7624 82.7077 19.1052C83.6354 20.8465 83.8091 22.4004 83.8914 23.2185C84.1016 25.2705 83.7314 26.8519 83.576 27.4277C83.3475 28.2961 82.9636 29.6854 81.8485 31.0931C81.6839 31.3033 80.9481 32.2037 79.577 33.104C76.7343 34.9642 73.6904 35.1515 72.2462 35.1287V35.1241ZM75.4317 27.3546C75.8705 27.0484 76.1584 26.7742 76.4235 26.5228C77.3878 25.5996 78.1602 24.8638 78.1922 23.9497C78.2151 23.1956 77.7215 22.6197 77.365 22.2084C75.6511 20.2249 72.8175 20.2295 72.4565 20.234C72.0908 20.2386 69.1019 20.3255 67.516 22.4598C67.2189 22.8574 66.7938 23.4287 66.8441 24.1599C66.9081 25.106 67.7353 25.7961 68.9465 26.8062C69.3578 27.1489 69.7326 27.4597 70.313 27.7751C70.9757 28.1315 71.6704 28.5063 72.5753 28.5109C73.7681 28.52 74.6776 27.8847 75.4272 27.3546H75.4317Z" fill="black"/>
<path d="M127.159 25.8461C128.306 27.5783 129.91 29.7674 131.062 31.4996C130.897 31.7418 130.646 32.0754 130.298 32.4365C130.298 32.4365 129.773 32.9895 129.11 33.4557C128.621 33.7984 125.961 35.4163 122.172 35.1833C121.112 35.1193 117.406 34.7491 114.599 31.9246C113.621 30.942 112.977 29.7948 112.977 29.7948C112.863 29.5983 112.438 28.8305 112.095 27.7245C112.022 27.496 111.706 26.4448 111.601 24.9869C111.551 24.2602 111.469 22.9668 111.857 21.3489C112.131 20.2018 112.529 19.3882 112.611 19.2191C113.525 17.3682 114.837 16.2987 115.445 15.8143C118.795 13.1406 122.757 13.2549 123.233 13.2777C123.946 13.3097 126.98 13.5063 129.723 15.5949C130.111 15.892 130.413 16.1616 130.618 16.3581C129.585 17.8526 128.091 19.7996 127.058 21.2941C126.825 20.9239 126.167 19.987 124.905 19.4477C124.672 19.3471 123.703 18.9541 122.419 19.1095C122.003 19.1597 120.299 19.4157 119.11 20.9193C118.352 21.8791 118.182 22.8617 118.146 23.1313C118.1 23.4604 117.899 25.0783 118.996 26.5179C119.8 27.5737 120.852 27.9439 121.29 28.0901C121.679 28.2181 123.146 28.6843 124.787 27.9987C126.258 27.3817 126.962 26.2163 127.163 25.8415L127.159 25.8461Z" fill="black"/>
<path d="M156.669 35.2016C154.21 35.2016 151.751 35.1925 149.297 35.1879V21.8334C149.283 21.5272 149.219 21.0428 148.941 20.5035C148.685 20.0053 148.365 19.69 148.287 19.6123C147.72 19.0638 147.071 18.8079 146.875 18.7348C146.715 18.6754 145.092 18.1086 143.584 18.7485C142.981 19.0044 142.583 19.3929 142.35 19.6168C141.93 20.0236 141.706 20.3892 141.633 20.5218C141.304 21.0976 141.208 21.6369 141.185 22.0208C141.185 22.647 141.185 23.2731 141.185 23.8992C141.18 27.6697 141.171 31.4357 141.166 35.2062H132.89C132.899 24.6396 132.913 14.073 132.922 3.50191C135.659 2.9352 138.401 2.36848 141.139 1.80176L141.185 15.3162C141.605 14.9963 142.222 14.5804 143.022 14.2056C145.129 13.223 147.021 13.2321 147.821 13.2458C149.43 13.2732 150.613 13.6297 150.997 13.7577C151.591 13.9497 152.441 14.233 153.369 14.914C153.991 15.3664 154.407 15.8235 154.617 16.0703C155.485 17.094 155.833 18.1041 156.043 18.7302C156.308 19.5254 156.404 20.1698 156.482 20.7C156.591 21.445 156.623 22.0848 156.632 22.5647C156.646 23.4239 156.66 24.2877 156.678 25.1469V35.2062L156.669 35.2016Z" fill="black"/>
<path d="M109.72 34.9789C106.987 34.9789 104.249 34.9789 101.516 34.9789C101.516 34.5173 101.516 33.8181 101.516 32.968C101.516 32.223 101.516 32.0448 101.521 31.7843C101.512 31.6654 101.512 28.0823 101.512 28.0823V26.0257C101.512 25.2853 101.512 25.1573 101.512 24.8237C101.512 24.5083 101.512 24.2478 101.516 24.0787C101.516 23.7634 101.516 23.448 101.512 23.1327C101.502 23.023 101.489 22.8813 101.457 22.7168C101.457 22.7168 101.443 22.6391 101.42 22.5568C101.411 22.5202 101.237 21.9535 101.018 21.5833C100.799 21.2177 100.109 20.3265 98.9066 20.0294C98.2439 19.8649 97.7046 19.9472 97.3298 20.0111C96.9139 20.0843 96.2741 20.1894 95.6205 20.6647C95.4285 20.8018 94.8801 21.2131 94.5419 21.9535C94.286 22.5111 94.2494 23.0321 94.2494 23.1464C94.2494 23.1555 94.2494 23.2424 94.2494 23.3475C94.2494 23.4572 94.2494 23.5806 94.2494 23.6811V34.9789H86V13.078C87.9104 13.3065 89.8208 13.535 91.7357 13.759V15.811C92.7321 15.0066 94.1534 14.1017 95.9998 13.535C96.7494 13.3065 97.9285 12.9546 99.5053 13.0049C101 13.0551 102.106 13.4436 102.864 13.7132C104.459 14.2891 105.511 15.0386 105.767 15.2215C106.722 15.9161 107.325 16.5925 107.508 16.8028C107.695 17.0176 108.605 18.0825 109.162 19.4718C109.162 19.4718 109.469 20.2397 109.624 21.0486C109.661 21.2497 109.683 21.4325 109.683 21.4325C109.715 21.7113 109.724 21.9444 109.72 22.1181C109.72 23.4389 109.711 24.1656 109.711 24.586C109.711 24.6272 109.711 24.7277 109.711 24.8648C109.706 25.7012 109.711 26.2953 109.711 26.4644C109.711 27.15 109.72 30.3858 109.724 34.9698L109.72 34.9789Z" fill="black"/>
<path d="M183.099 35.1974H174.713C174.681 34.1097 174.644 33.022 174.612 31.9388C174.26 32.5055 173.502 33.5613 172.149 34.3474C170.545 35.2797 169.023 35.2888 168.296 35.2888C164.032 35.2706 161.281 31.9845 160.924 31.5412C159.964 30.3575 159.521 29.2469 159.261 28.5796C158.881 27.6016 157.981 25.2021 158.57 22.1309C159.187 18.9363 161.047 16.9482 161.779 16.2398C162.519 15.5268 164.1 14.0414 166.669 13.5021C167.121 13.4062 170.165 12.8166 173.223 14.5213C174.105 15.0149 174.749 15.5634 175.179 15.9793C175.449 15.1429 175.718 14.3065 175.988 13.4702L183.104 15.3714C182.784 17.2772 182.533 19.3476 182.395 21.5642C182.071 26.7743 182.473 31.3904 183.104 35.1974H183.099ZM174.626 24.3109C174.635 24.0047 174.662 21.9618 173.026 20.4307C171.728 19.215 170.206 19.0962 169.777 19.0779C169.37 19.0596 167.734 19.0368 166.285 20.2479C164.42 21.811 164.475 24.0916 164.48 24.3109C164.567 26.5184 166.084 27.8118 166.34 28.022C167.894 29.3017 169.653 29.2012 170.005 29.1692C170.563 29.1235 171.893 28.9269 173.045 27.8529C174.507 26.4864 174.612 24.7131 174.621 24.3109H174.626Z" fill="black"/>
<path d="M22.1555 10.7324C20.0211 10.7096 17.8822 10.6867 15.7479 10.6685C15.6473 13.4289 15.5788 16.2305 15.5377 19.0778C15.46 24.6079 15.4965 29.9872 15.6382 35.2019H7.08258C7.25625 29.9597 7.34308 24.5851 7.33394 19.0778C7.33394 16.2717 7.30195 13.502 7.24711 10.7644C5.03051 10.7553 2.81391 10.7461 0.601874 10.737C0.565312 7.74345 0.52875 4.7499 0.492188 1.75635C3.97934 1.98943 7.69957 2.12654 11.63 2.12197C15.3914 2.1174 18.9562 1.98029 22.3109 1.75635C22.2606 4.7499 22.2103 7.74345 22.16 10.737L22.1555 10.7324Z" fill="black"/>
</svg>
