<svg width="335" height="98" viewBox="0 0 335 98" fill="none" xmlns="http://www.w3.org/2000/svg">
<path d="M227.273 13.3623V36.552H240.902V42.0085H221.14V13.3623H227.273Z" fill="black"/>
<path d="M143.793 12.6802C152.652 11.9982 160.83 17.7956 161.171 27.3443C161.852 41.3264 145.497 48.1469 135.615 39.9623C125.052 31.0956 130.504 13.7033 143.793 12.6802ZM154.697 28.0264C154.697 22.911 150.608 18.4777 145.497 18.4777C140.386 18.4777 136.297 22.57 136.297 28.0264C136.297 33.4828 140.386 37.5751 145.497 37.5751C150.608 37.2341 154.697 33.1418 154.697 28.0264Z" fill="black"/>
<path d="M296.443 42.3497H289.628L283.836 33.142L283.495 32.801H278.384V33.142C278.384 35.8702 278.725 39.2805 278.384 42.0087V42.3497H272.591V13.7035C272.591 13.7035 272.932 13.3625 272.932 13.7035C277.702 14.0446 283.495 13.0215 288.265 13.7035C297.465 15.0676 300.191 26.6625 292.013 31.4369C291.673 31.4369 290.991 31.7779 290.65 32.1189C290.65 32.1189 290.65 32.1189 290.65 32.4599L296.443 42.3497ZM286.221 19.1599H278.043V26.6625C278.043 26.6625 278.043 26.6625 278.043 27.0035C278.384 27.0035 278.384 27.0035 278.725 27.0035C280.769 27.0035 283.154 27.0035 285.199 27.0035C287.243 27.0035 289.288 26.3215 289.969 23.9343C290.65 21.5471 288.606 19.501 286.221 19.1599Z" fill="black"/>
<path d="M241.584 42.3495L249.08 13.3623H261.688L268.843 42.3495H262.71L261.006 35.87H249.421L247.717 42.3495H241.584ZM251.125 30.0726H259.984L257.258 19.5008C257.258 19.5008 254.532 19.5008 254.191 19.5008C254.191 19.5008 253.851 19.5008 253.851 19.8418L251.125 30.0726Z" fill="black"/>
<path d="M209.895 24.9572V13.7033H215.688V42.3495H209.895V30.7546H197.628V42.3495H191.836V13.7033C191.836 13.7033 191.836 13.7033 191.836 13.3623H197.628V24.2751L209.895 24.9572Z" fill="black"/>
<path d="M163.214 33.142H169.347C170.029 35.5291 172.073 37.2343 174.458 37.2343C176.162 37.2343 179.569 37.2343 180.592 35.1881C181.954 32.4599 178.888 31.4368 176.843 30.7548C172.073 29.0496 164.918 28.7086 164.236 22.2291C163.214 11.9984 177.866 9.61118 183.999 15.7496C185.021 16.7727 186.725 19.5009 186.725 21.2061V21.5471H180.932C180.251 20.524 179.91 19.842 178.888 19.1599C176.843 17.7958 172.414 17.7958 171.051 20.183C169.688 22.5702 172.414 23.9343 174.458 24.6163C179.229 26.3214 186.725 26.6625 187.406 33.483C188.088 43.7137 174.458 45.7599 167.984 40.9855C165.599 39.2804 163.895 36.2112 163.214 33.142Z" fill="black"/>
<path d="M109.037 13.3623L115.511 25.2982C115.851 25.6392 116.192 25.2982 116.533 24.9572C118.577 21.8879 119.94 18.4777 121.985 15.4085C122.325 14.7264 122.666 14.0444 123.007 13.7033H129.481V14.0444L118.918 32.1187V42.3495H113.125V31.7777C109.718 25.6392 105.97 20.1828 102.903 14.0444C102.903 13.7033 102.562 13.7033 102.562 13.3623H109.037Z" fill="black"/>
<path d="M158.444 52.9214H166.281L177.185 73.0419H177.526L177.185 69.9727V52.9214H183.318V81.5675H175.822L164.578 61.106C164.237 61.106 164.918 64.1752 164.918 64.1752V81.2265H159.126L158.444 52.9214Z" fill="black"/>
<path d="M242.267 52.9216L257.26 52.5806C267.141 53.2626 270.889 65.5395 261.348 70.6549C261.008 70.6549 260.326 70.996 260.326 71.337L266.46 81.5677H259.645C257.6 78.4985 255.897 75.0883 253.852 72.019H248.4V81.2267H242.608L242.267 52.9216ZM248.4 66.2216H256.237C258.282 66.2216 260.326 64.5165 260.326 62.4703C260.326 60.4242 258.623 58.719 256.578 58.719H248.4V66.2216Z" fill="black"/>
<path d="M139.022 58.7187V64.1752H150.948C150.948 64.1752 150.948 64.1752 151.289 64.1752V69.2905H139.363V75.429H154.355V81.2264H133.57V52.5803C133.57 52.5803 133.57 52.5803 133.57 52.2393H154.355V57.6957L139.022 58.7187Z" fill="black"/>
<path d="M291.674 58.719H276.682V64.1754H288.608V69.2907H276.682V75.4292H291.674V80.8856H270.889V52.2395C270.889 52.2395 270.889 52.2395 270.889 51.8984H291.674V58.719C291.674 58.3779 291.674 58.3779 291.674 58.719Z" fill="black"/>
<path d="M317.91 60.7652H311.777C311.436 60.4242 311.436 59.7421 310.755 59.4011C308.71 56.6729 301.214 57.0139 301.555 61.1062C301.896 63.8344 308.029 64.5165 310.073 65.1985C314.503 66.5626 318.592 68.6088 318.251 74.0652C317.91 82.9319 305.644 84.637 299.51 80.8857C296.784 79.1806 294.74 76.1114 294.059 72.7011H294.399H300.192C300.192 72.7011 300.533 72.7011 300.533 73.0421C300.873 73.3831 300.873 74.0652 301.214 74.4062C302.918 77.1344 307.688 77.8165 310.414 76.4524C312.458 75.4293 312.458 72.7011 310.755 71.678C306.325 68.9498 296.444 69.6319 295.422 62.1293C294.399 52.9216 305.644 50.1934 312.118 53.6037C315.184 54.6267 317.229 57.3549 317.91 60.7652Z" fill="black"/>
<path d="M219.096 52.5806V70.6549C219.096 76.7934 227.614 78.4985 230.34 73.3831C230.681 73.0421 231.021 71.678 231.021 71.337V52.5806H236.814C236.814 52.5806 237.155 52.9216 236.814 52.9216C236.473 58.719 237.155 64.8575 236.814 70.6549C236.473 77.4754 232.384 81.9088 225.57 82.2498C218.755 82.5908 213.303 78.4985 212.622 71.337V52.5806H212.962H219.096Z" fill="black"/>
<path d="M129.823 52.5806L122.667 81.2267V81.5677H110.401H110.06L102.904 52.9216H109.038L114.83 75.7703C115.171 75.7703 117.897 75.7703 117.897 75.7703L123.349 53.2626C123.349 53.2626 123.349 52.9216 123.689 52.9216H124.03L129.823 52.5806Z" fill="black"/>
<path d="M201.376 58.719V81.5677H195.584V58.719H186.725V58.378V52.9216L187.065 52.5806H210.917V58.037H201.376V58.719Z" fill="black"/>
<path d="M0 95.5497V28.7087C1.02222 15.0677 11.9259 3.47278 25.5554 2.44971H90.6365V70.3138C89.955 83.6138 79.3921 94.8677 66.4441 95.5497H0ZM47.0219 23.2523H17.3777V23.5933L32.7109 50.5343H47.7034C47.3627 51.2164 47.0219 51.8984 46.6812 52.2395C44.6368 55.9907 42.5923 59.742 40.2072 63.4933C40.2072 63.8343 39.8664 63.8343 39.8664 64.1753H25.2147C25.2147 64.1753 24.8739 64.1754 25.2147 64.5164L32.3702 77.4753H46.6812H47.0219L62.3552 50.8753L54.5182 37.2343H69.17V36.8933C71.5551 33.142 73.9403 28.7087 76.3255 24.6164C76.6662 24.2753 76.6662 23.9343 76.6662 23.5933H62.0145C62.0145 23.5933 61.6737 23.5933 61.6737 23.9343L54.1775 37.5753L47.0219 23.2523Z" fill="black"/>
</svg>
