<svg width="16" height="17" viewBox="0 0 16 17" fill="none" xmlns="http://www.w3.org/2000/svg">
<path d="M5.80946 2.58706C4.17653 3.51475 2.89332 4.24375 1.97914 4.91154C1.05867 5.58392 0.377946 6.2867 0.134114 7.21321C-0.0447044 7.89269 -0.0447044 8.60743 0.134114 9.28691C0.377946 10.2134 1.05867 10.9162 1.97914 11.5886C2.89331 12.2564 4.1765 12.9854 5.80941 13.913L5.80942 13.913C7.38681 14.8092 8.71697 15.5649 9.72678 15.9944C10.7447 16.4274 11.6727 16.6468 12.5746 16.3912C13.2375 16.2034 13.8406 15.8469 14.3264 15.3567C14.9858 14.6914 15.2505 13.772 15.3757 12.6654C15.5 11.567 15.5 10.129 15.5 8.30017V8.30016V8.19997V8.19996C15.5 6.37108 15.5 4.93315 15.3757 3.8347C15.2505 2.72816 14.9858 1.80867 14.3264 1.14341C13.8406 0.653232 13.2375 0.296724 12.5746 0.108895C11.6727 -0.146689 10.7447 0.0727526 9.72678 0.505712C8.71697 0.93522 7.38684 1.6909 5.80946 2.58706Z" fill="white"/>
</svg>
